<mxfile host="app.diagrams.net" agent="Mozilla/5.0 (Windows NT 10.0; Win64; x64) AppleWebKit/537.36 (KHTML, like Gecko) Chrome/105.0.0.0 Safari/537.36 Edg/105.0.1343.42" version="24.8.3">
  <diagram name="Page-1" id="QqRgdozphJgJEkNp3Cqe">
    <mxGraphModel grid="1" page="1" gridSize="10" guides="1" tooltips="1" connect="1" arrows="1" fold="1" pageScale="1" pageWidth="850" pageHeight="1100" math="0" shadow="0">
      <root>
        <mxCell id="0" />
        <mxCell id="1" parent="0" />
        <mxCell id="D1ktm93ZQyzYeGJnjbzK-1" value="Learner" style="whiteSpace=wrap;html=1;align=center;" vertex="1" parent="1">
          <mxGeometry x="370" y="360" width="175" height="70" as="geometry" />
        </mxCell>
        <mxCell id="D1ktm93ZQyzYeGJnjbzK-3" value="Personalization Profiles" style="shape=ext;margin=3;double=1;whiteSpace=wrap;html=1;align=center;" vertex="1" parent="1">
          <mxGeometry x="1086.25" y="205" width="100" height="40" as="geometry" />
        </mxCell>
        <mxCell id="D1ktm93ZQyzYeGJnjbzK-6" value="" style="endArrow=none;html=1;rounded=0;entryX=0.594;entryY=0.911;entryDx=0;entryDy=0;exitX=0.25;exitY=0;exitDx=0;exitDy=0;entryPerimeter=0;" edge="1" parent="1" source="D1ktm93ZQyzYeGJnjbzK-1" target="D1ktm93ZQyzYeGJnjbzK-7">
          <mxGeometry width="50" height="50" relative="1" as="geometry">
            <mxPoint x="400" y="430" as="sourcePoint" />
            <mxPoint x="310" y="340" as="targetPoint" />
          </mxGeometry>
        </mxCell>
        <mxCell id="D1ktm93ZQyzYeGJnjbzK-7" value="LearnerID" style="ellipse;whiteSpace=wrap;html=1;align=center;fontStyle=4;" vertex="1" parent="1">
          <mxGeometry x="390" y="110" width="100" height="40" as="geometry" />
        </mxCell>
        <mxCell id="D1ktm93ZQyzYeGJnjbzK-8" value="Name" style="ellipse;whiteSpace=wrap;html=1;align=center;" vertex="1" parent="1">
          <mxGeometry x="445" y="160" width="100" height="40" as="geometry" />
        </mxCell>
        <mxCell id="D1ktm93ZQyzYeGJnjbzK-10" value="" style="endArrow=none;html=1;rounded=0;exitX=0.5;exitY=1;exitDx=0;exitDy=0;entryX=0.25;entryY=0;entryDx=0;entryDy=0;" edge="1" parent="1" source="D1ktm93ZQyzYeGJnjbzK-8" target="D1ktm93ZQyzYeGJnjbzK-1">
          <mxGeometry relative="1" as="geometry">
            <mxPoint x="460" y="319.5" as="sourcePoint" />
            <mxPoint x="620" y="319.5" as="targetPoint" />
          </mxGeometry>
        </mxCell>
        <mxCell id="D1ktm93ZQyzYeGJnjbzK-11" value="Gender" style="ellipse;whiteSpace=wrap;html=1;align=center;" vertex="1" parent="1">
          <mxGeometry x="440" y="305" width="100" height="40" as="geometry" />
        </mxCell>
        <mxCell id="D1ktm93ZQyzYeGJnjbzK-12" value="First_name" style="ellipse;whiteSpace=wrap;html=1;align=center;" vertex="1" parent="1">
          <mxGeometry x="445" y="55" width="100" height="40" as="geometry" />
        </mxCell>
        <mxCell id="D1ktm93ZQyzYeGJnjbzK-13" value="Last_name" style="ellipse;whiteSpace=wrap;html=1;align=center;" vertex="1" parent="1">
          <mxGeometry x="500" y="110" width="100" height="40" as="geometry" />
        </mxCell>
        <mxCell id="D1ktm93ZQyzYeGJnjbzK-15" value="skills" style="ellipse;shape=doubleEllipse;margin=3;whiteSpace=wrap;html=1;align=center;" vertex="1" parent="1">
          <mxGeometry x="330" y="170" width="100" height="40" as="geometry" />
        </mxCell>
        <mxCell id="D1ktm93ZQyzYeGJnjbzK-16" value="cultural_background" style="ellipse;whiteSpace=wrap;html=1;align=center;" vertex="1" parent="1">
          <mxGeometry x="400" y="500" width="120" height="40" as="geometry" />
        </mxCell>
        <mxCell id="D1ktm93ZQyzYeGJnjbzK-18" value="" style="endArrow=none;html=1;rounded=0;exitX=0.5;exitY=1;exitDx=0;exitDy=0;entryX=0.5;entryY=0;entryDx=0;entryDy=0;" edge="1" parent="1" source="D1ktm93ZQyzYeGJnjbzK-11" target="D1ktm93ZQyzYeGJnjbzK-1">
          <mxGeometry relative="1" as="geometry">
            <mxPoint x="480" y="370" as="sourcePoint" />
            <mxPoint x="640" y="370" as="targetPoint" />
          </mxGeometry>
        </mxCell>
        <mxCell id="D1ktm93ZQyzYeGJnjbzK-19" value="" style="endArrow=none;html=1;rounded=0;exitX=0.5;exitY=1;exitDx=0;exitDy=0;entryX=1;entryY=0;entryDx=0;entryDy=0;" edge="1" parent="1" source="D1ktm93ZQyzYeGJnjbzK-13" target="D1ktm93ZQyzYeGJnjbzK-8">
          <mxGeometry relative="1" as="geometry">
            <mxPoint x="480" y="210" as="sourcePoint" />
            <mxPoint x="425" y="272" as="targetPoint" />
          </mxGeometry>
        </mxCell>
        <mxCell id="D1ktm93ZQyzYeGJnjbzK-20" value="" style="endArrow=none;html=1;rounded=0;exitX=0.5;exitY=1;exitDx=0;exitDy=0;entryX=0.5;entryY=0;entryDx=0;entryDy=0;" edge="1" parent="1" source="D1ktm93ZQyzYeGJnjbzK-12" target="D1ktm93ZQyzYeGJnjbzK-8">
          <mxGeometry relative="1" as="geometry">
            <mxPoint x="360" y="230" as="sourcePoint" />
            <mxPoint x="520" y="230" as="targetPoint" />
            <Array as="points" />
          </mxGeometry>
        </mxCell>
        <mxCell id="D1ktm93ZQyzYeGJnjbzK-21" value="" style="endArrow=none;html=1;rounded=0;exitX=0.1;exitY=0;exitDx=0;exitDy=0;entryX=0.5;entryY=1;entryDx=0;entryDy=0;exitPerimeter=0;" edge="1" parent="1" source="D1ktm93ZQyzYeGJnjbzK-1" target="D1ktm93ZQyzYeGJnjbzK-15">
          <mxGeometry relative="1" as="geometry">
            <mxPoint x="410" y="450" as="sourcePoint" />
            <mxPoint x="570" y="450" as="targetPoint" />
          </mxGeometry>
        </mxCell>
        <mxCell id="D1ktm93ZQyzYeGJnjbzK-22" value="" style="endArrow=none;html=1;rounded=0;entryX=0.5;entryY=0;entryDx=0;entryDy=0;exitX=0.5;exitY=1;exitDx=0;exitDy=0;" edge="1" parent="1" source="D1ktm93ZQyzYeGJnjbzK-1" target="D1ktm93ZQyzYeGJnjbzK-16">
          <mxGeometry relative="1" as="geometry">
            <mxPoint x="425" y="450" as="sourcePoint" />
            <mxPoint x="585" y="450" as="targetPoint" />
          </mxGeometry>
        </mxCell>
        <mxCell id="D1ktm93ZQyzYeGJnjbzK-24" value="Learning_prefernce" style="ellipse;shape=doubleEllipse;margin=3;whiteSpace=wrap;html=1;align=center;" vertex="1" parent="1">
          <mxGeometry x="482.5" y="540" width="140" height="40" as="geometry" />
        </mxCell>
        <mxCell id="D1ktm93ZQyzYeGJnjbzK-25" value="" style="endArrow=none;html=1;rounded=0;entryX=0.5;entryY=0;entryDx=0;entryDy=0;exitX=0.75;exitY=1;exitDx=0;exitDy=0;" edge="1" parent="1" source="D1ktm93ZQyzYeGJnjbzK-1" target="D1ktm93ZQyzYeGJnjbzK-24">
          <mxGeometry relative="1" as="geometry">
            <mxPoint x="450" y="450" as="sourcePoint" />
            <mxPoint x="610" y="450" as="targetPoint" />
          </mxGeometry>
        </mxCell>
        <mxCell id="D1ktm93ZQyzYeGJnjbzK-26" value="birth_date" style="ellipse;whiteSpace=wrap;html=1;align=center;" vertex="1" parent="1">
          <mxGeometry x="490" y="210" width="100" height="40" as="geometry" />
        </mxCell>
        <mxCell id="D1ktm93ZQyzYeGJnjbzK-27" value="" style="endArrow=none;html=1;rounded=0;entryX=1;entryY=0;entryDx=0;entryDy=0;exitX=0.383;exitY=0.996;exitDx=0;exitDy=0;exitPerimeter=0;" edge="1" parent="1" source="D1ktm93ZQyzYeGJnjbzK-26" target="D1ktm93ZQyzYeGJnjbzK-1">
          <mxGeometry relative="1" as="geometry">
            <mxPoint x="180" y="510" as="sourcePoint" />
            <mxPoint x="340" y="510" as="targetPoint" />
          </mxGeometry>
        </mxCell>
        <mxCell id="D1ktm93ZQyzYeGJnjbzK-28" value="country" style="ellipse;whiteSpace=wrap;html=1;align=center;" vertex="1" parent="1">
          <mxGeometry x="330" y="550" width="100" height="40" as="geometry" />
        </mxCell>
        <mxCell id="D1ktm93ZQyzYeGJnjbzK-29" value="" style="endArrow=none;html=1;rounded=0;exitX=0.25;exitY=1;exitDx=0;exitDy=0;entryX=0.5;entryY=0;entryDx=0;entryDy=0;" edge="1" parent="1" source="D1ktm93ZQyzYeGJnjbzK-1" target="D1ktm93ZQyzYeGJnjbzK-28">
          <mxGeometry relative="1" as="geometry">
            <mxPoint x="310" y="490" as="sourcePoint" />
            <mxPoint x="470" y="490" as="targetPoint" />
          </mxGeometry>
        </mxCell>
        <mxCell id="D1ktm93ZQyzYeGJnjbzK-30" value="has" style="shape=rhombus;double=1;perimeter=rhombusPerimeter;whiteSpace=wrap;html=1;align=center;" vertex="1" parent="1">
          <mxGeometry x="700" y="345" width="82.5" height="30" as="geometry" />
        </mxCell>
        <mxCell id="D1ktm93ZQyzYeGJnjbzK-33" value="ProfileID" style="ellipse;whiteSpace=wrap;html=1;align=center;fontStyle=4;" vertex="1" parent="1">
          <mxGeometry x="996.25" y="115" width="100" height="40" as="geometry" />
        </mxCell>
        <mxCell id="D1ktm93ZQyzYeGJnjbzK-34" value="Personality_type" style="ellipse;whiteSpace=wrap;html=1;align=center;" vertex="1" parent="1">
          <mxGeometry x="1225" y="250" width="100" height="40" as="geometry" />
        </mxCell>
        <mxCell id="D1ktm93ZQyzYeGJnjbzK-35" value="emotional_state" style="ellipse;whiteSpace=wrap;html=1;align=center;" vertex="1" parent="1">
          <mxGeometry x="1160" y="295" width="100" height="40" as="geometry" />
        </mxCell>
        <mxCell id="D1ktm93ZQyzYeGJnjbzK-37" value="" style="edgeStyle=entityRelationEdgeStyle;fontSize=12;html=1;endArrow=ERoneToMany;rounded=0;exitX=1;exitY=0.5;exitDx=0;exitDy=0;" edge="1" parent="1" source="D1ktm93ZQyzYeGJnjbzK-30" target="D1ktm93ZQyzYeGJnjbzK-3">
          <mxGeometry width="100" height="100" relative="1" as="geometry">
            <mxPoint x="704.9999999999995" y="255" as="sourcePoint" />
            <mxPoint x="786.25" y="205" as="targetPoint" />
          </mxGeometry>
        </mxCell>
        <mxCell id="D1ktm93ZQyzYeGJnjbzK-38" value="" style="edgeStyle=entityRelationEdgeStyle;fontSize=12;html=1;endArrow=ERone;endFill=1;rounded=0;entryX=1;entryY=0.25;entryDx=0;entryDy=0;exitX=0;exitY=0.5;exitDx=0;exitDy=0;" edge="1" parent="1" source="D1ktm93ZQyzYeGJnjbzK-30" target="D1ktm93ZQyzYeGJnjbzK-1">
          <mxGeometry width="100" height="100" relative="1" as="geometry">
            <mxPoint x="530" y="540" as="sourcePoint" />
            <mxPoint x="630" y="440" as="targetPoint" />
          </mxGeometry>
        </mxCell>
        <mxCell id="D1ktm93ZQyzYeGJnjbzK-39" value="Prefered_content_type" style="ellipse;whiteSpace=wrap;html=1;align=center;" vertex="1" parent="1">
          <mxGeometry x="1089.25" y="75" width="127.5" height="60" as="geometry" />
        </mxCell>
        <mxCell id="D1ktm93ZQyzYeGJnjbzK-40" value="" style="endArrow=none;html=1;rounded=0;exitX=0.5;exitY=1;exitDx=0;exitDy=0;entryX=0.5;entryY=0;entryDx=0;entryDy=0;" edge="1" parent="1" source="D1ktm93ZQyzYeGJnjbzK-3" target="D1ktm93ZQyzYeGJnjbzK-35">
          <mxGeometry relative="1" as="geometry">
            <mxPoint x="1076.25" y="274" as="sourcePoint" />
            <mxPoint x="1236.25" y="274" as="targetPoint" />
          </mxGeometry>
        </mxCell>
        <mxCell id="D1ktm93ZQyzYeGJnjbzK-41" value="" style="endArrow=none;html=1;rounded=0;exitX=0.25;exitY=1;exitDx=0;exitDy=0;entryX=0.5;entryY=0;entryDx=0;entryDy=0;" edge="1" parent="1" source="D1ktm93ZQyzYeGJnjbzK-3" target="tkY_Gy2M9DlLA2ceVLeB-212">
          <mxGeometry relative="1" as="geometry">
            <mxPoint x="896.25" y="405" as="sourcePoint" />
            <mxPoint x="1076.25" y="285" as="targetPoint" />
          </mxGeometry>
        </mxCell>
        <mxCell id="D1ktm93ZQyzYeGJnjbzK-42" value="" style="endArrow=none;html=1;rounded=0;exitX=0.75;exitY=1;exitDx=0;exitDy=0;entryX=0;entryY=0;entryDx=0;entryDy=0;" edge="1" parent="1" source="D1ktm93ZQyzYeGJnjbzK-3" target="D1ktm93ZQyzYeGJnjbzK-34">
          <mxGeometry relative="1" as="geometry">
            <mxPoint x="1116.25" y="265" as="sourcePoint" />
            <mxPoint x="1276.25" y="265" as="targetPoint" />
          </mxGeometry>
        </mxCell>
        <mxCell id="D1ktm93ZQyzYeGJnjbzK-43" value="" style="endArrow=none;html=1;rounded=0;exitX=0.5;exitY=1;exitDx=0;exitDy=0;entryX=0.25;entryY=0;entryDx=0;entryDy=0;" edge="1" parent="1" source="D1ktm93ZQyzYeGJnjbzK-33" target="D1ktm93ZQyzYeGJnjbzK-3">
          <mxGeometry relative="1" as="geometry">
            <mxPoint x="1116.25" y="195" as="sourcePoint" />
            <mxPoint x="1276.25" y="195" as="targetPoint" />
          </mxGeometry>
        </mxCell>
        <mxCell id="D1ktm93ZQyzYeGJnjbzK-44" value="" style="endArrow=none;html=1;rounded=0;exitX=0.5;exitY=1;exitDx=0;exitDy=0;entryX=0.5;entryY=0;entryDx=0;entryDy=0;" edge="1" parent="1" source="D1ktm93ZQyzYeGJnjbzK-39" target="D1ktm93ZQyzYeGJnjbzK-3">
          <mxGeometry relative="1" as="geometry">
            <mxPoint x="1146.25" y="175" as="sourcePoint" />
            <mxPoint x="1306.25" y="175" as="targetPoint" />
          </mxGeometry>
        </mxCell>
        <mxCell id="D1ktm93ZQyzYeGJnjbzK-45" value="Course" style="whiteSpace=wrap;html=1;align=center;" vertex="1" parent="1">
          <mxGeometry x="195" y="875" width="100" height="40" as="geometry" />
        </mxCell>
        <mxCell id="D1ktm93ZQyzYeGJnjbzK-46" value="CourseID" style="ellipse;whiteSpace=wrap;html=1;align=center;fontStyle=4;" vertex="1" parent="1">
          <mxGeometry x="320" y="720" width="100" height="40" as="geometry" />
        </mxCell>
        <mxCell id="D1ktm93ZQyzYeGJnjbzK-49" value="Difficulty_level" style="ellipse;whiteSpace=wrap;html=1;align=center;" vertex="1" parent="1">
          <mxGeometry x="220" y="995" width="100" height="40" as="geometry" />
        </mxCell>
        <mxCell id="D1ktm93ZQyzYeGJnjbzK-50" value="Description" style="ellipse;whiteSpace=wrap;html=1;align=center;" vertex="1" parent="1">
          <mxGeometry x="380" y="970" width="100" height="40" as="geometry" />
        </mxCell>
        <mxCell id="D1ktm93ZQyzYeGJnjbzK-51" value="Title" style="ellipse;whiteSpace=wrap;html=1;align=center;" vertex="1" parent="1">
          <mxGeometry x="180" y="770" width="100" height="40" as="geometry" />
        </mxCell>
        <mxCell id="D1ktm93ZQyzYeGJnjbzK-52" value="Learning_objective" style="ellipse;whiteSpace=wrap;html=1;align=center;" vertex="1" parent="1">
          <mxGeometry x="320" y="810" width="110" height="40" as="geometry" />
        </mxCell>
        <mxCell id="D1ktm93ZQyzYeGJnjbzK-54" value="Credit_points" style="ellipse;whiteSpace=wrap;html=1;align=center;" vertex="1" parent="1">
          <mxGeometry x="150" y="940" width="100" height="40" as="geometry" />
        </mxCell>
        <mxCell id="D1ktm93ZQyzYeGJnjbzK-55" value="" style="endArrow=none;html=1;rounded=0;exitX=0.5;exitY=1;exitDx=0;exitDy=0;entryX=0.5;entryY=0;entryDx=0;entryDy=0;" edge="1" parent="1" source="D1ktm93ZQyzYeGJnjbzK-46" target="D1ktm93ZQyzYeGJnjbzK-45">
          <mxGeometry relative="1" as="geometry">
            <mxPoint x="295" y="840" as="sourcePoint" />
            <mxPoint x="455" y="840" as="targetPoint" />
          </mxGeometry>
        </mxCell>
        <mxCell id="D1ktm93ZQyzYeGJnjbzK-56" value="" style="endArrow=none;html=1;rounded=0;exitX=0;exitY=0.5;exitDx=0;exitDy=0;entryX=0.75;entryY=0;entryDx=0;entryDy=0;" edge="1" parent="1" source="D1ktm93ZQyzYeGJnjbzK-52" target="D1ktm93ZQyzYeGJnjbzK-45">
          <mxGeometry relative="1" as="geometry">
            <mxPoint x="310" y="850" as="sourcePoint" />
            <mxPoint x="470" y="850" as="targetPoint" />
          </mxGeometry>
        </mxCell>
        <mxCell id="D1ktm93ZQyzYeGJnjbzK-57" value="" style="endArrow=none;html=1;rounded=0;exitX=0.5;exitY=1;exitDx=0;exitDy=0;entryX=0.25;entryY=0;entryDx=0;entryDy=0;" edge="1" parent="1" source="D1ktm93ZQyzYeGJnjbzK-51" target="D1ktm93ZQyzYeGJnjbzK-45">
          <mxGeometry relative="1" as="geometry">
            <mxPoint x="110" y="850" as="sourcePoint" />
            <mxPoint x="270" y="850" as="targetPoint" />
          </mxGeometry>
        </mxCell>
        <mxCell id="D1ktm93ZQyzYeGJnjbzK-58" value="" style="endArrow=none;html=1;rounded=0;exitX=0.25;exitY=1;exitDx=0;exitDy=0;entryX=0.5;entryY=0;entryDx=0;entryDy=0;" edge="1" parent="1" source="D1ktm93ZQyzYeGJnjbzK-45" target="D1ktm93ZQyzYeGJnjbzK-54">
          <mxGeometry relative="1" as="geometry">
            <mxPoint x="285" y="940" as="sourcePoint" />
            <mxPoint x="445" y="940" as="targetPoint" />
          </mxGeometry>
        </mxCell>
        <mxCell id="D1ktm93ZQyzYeGJnjbzK-59" value="" style="endArrow=none;html=1;rounded=0;exitX=0.5;exitY=1;exitDx=0;exitDy=0;entryX=0.5;entryY=0;entryDx=0;entryDy=0;" edge="1" parent="1" source="D1ktm93ZQyzYeGJnjbzK-45" target="D1ktm93ZQyzYeGJnjbzK-49">
          <mxGeometry relative="1" as="geometry">
            <mxPoint x="265" y="950" as="sourcePoint" />
            <mxPoint x="425" y="950" as="targetPoint" />
          </mxGeometry>
        </mxCell>
        <mxCell id="D1ktm93ZQyzYeGJnjbzK-60" value="" style="endArrow=none;html=1;rounded=0;exitX=0.75;exitY=1;exitDx=0;exitDy=0;entryX=0.35;entryY=0.025;entryDx=0;entryDy=0;entryPerimeter=0;" edge="1" parent="1" source="D1ktm93ZQyzYeGJnjbzK-45" target="-hTrkXFv86LwnVOCdB4E-9">
          <mxGeometry relative="1" as="geometry">
            <mxPoint x="325" y="959" as="sourcePoint" />
            <mxPoint x="315" y="950" as="targetPoint" />
          </mxGeometry>
        </mxCell>
        <mxCell id="D1ktm93ZQyzYeGJnjbzK-61" value="" style="endArrow=none;html=1;rounded=0;exitX=1;exitY=0.75;exitDx=0;exitDy=0;entryX=0;entryY=0;entryDx=0;entryDy=0;" edge="1" parent="1" source="D1ktm93ZQyzYeGJnjbzK-45" target="D1ktm93ZQyzYeGJnjbzK-50">
          <mxGeometry relative="1" as="geometry">
            <mxPoint x="325" y="930" as="sourcePoint" />
            <mxPoint x="485" y="930" as="targetPoint" />
          </mxGeometry>
        </mxCell>
        <mxCell id="D1ktm93ZQyzYeGJnjbzK-63" value="Module" style="whiteSpace=wrap;html=1;align=center;" vertex="1" parent="1">
          <mxGeometry x="740" y="1100" width="100" height="40" as="geometry" />
        </mxCell>
        <mxCell id="D1ktm93ZQyzYeGJnjbzK-64" value="ModuleID" style="ellipse;whiteSpace=wrap;html=1;align=center;fontStyle=4;" vertex="1" parent="1">
          <mxGeometry x="700" y="930" width="100" height="40" as="geometry" />
        </mxCell>
        <mxCell id="D1ktm93ZQyzYeGJnjbzK-65" value="Content_URL" style="ellipse;whiteSpace=wrap;html=1;align=center;" vertex="1" parent="1">
          <mxGeometry x="650" y="990" width="100" height="40" as="geometry" />
        </mxCell>
        <mxCell id="D1ktm93ZQyzYeGJnjbzK-66" value="Target_traits" style="ellipse;shape=doubleEllipse;margin=3;whiteSpace=wrap;html=1;align=center;" vertex="1" parent="1">
          <mxGeometry x="650" y="1200" width="100" height="40" as="geometry" />
        </mxCell>
        <mxCell id="D1ktm93ZQyzYeGJnjbzK-68" value="Content_type" style="ellipse;shape=doubleEllipse;margin=3;whiteSpace=wrap;html=1;align=center;" vertex="1" parent="1">
          <mxGeometry x="786.25" y="1240" width="100" height="40" as="geometry" />
        </mxCell>
        <mxCell id="D1ktm93ZQyzYeGJnjbzK-69" value="Title" style="ellipse;whiteSpace=wrap;html=1;align=center;" vertex="1" parent="1">
          <mxGeometry x="786.25" y="980" width="100" height="40" as="geometry" />
        </mxCell>
        <mxCell id="D1ktm93ZQyzYeGJnjbzK-70" value="Difficulty" style="ellipse;whiteSpace=wrap;html=1;align=center;" vertex="1" parent="1">
          <mxGeometry x="700" y="1270" width="100" height="40" as="geometry" />
        </mxCell>
        <mxCell id="D1ktm93ZQyzYeGJnjbzK-71" value="" style="endArrow=none;html=1;rounded=0;exitX=0.5;exitY=1;exitDx=0;exitDy=0;entryX=0.25;entryY=0;entryDx=0;entryDy=0;" edge="1" parent="1" source="D1ktm93ZQyzYeGJnjbzK-65" target="D1ktm93ZQyzYeGJnjbzK-63">
          <mxGeometry relative="1" as="geometry">
            <mxPoint x="690" y="1070" as="sourcePoint" />
            <mxPoint x="850" y="1070" as="targetPoint" />
          </mxGeometry>
        </mxCell>
        <mxCell id="D1ktm93ZQyzYeGJnjbzK-72" value="" style="endArrow=none;html=1;rounded=0;exitX=0.5;exitY=1;exitDx=0;exitDy=0;entryX=0.5;entryY=0;entryDx=0;entryDy=0;" edge="1" parent="1" source="D1ktm93ZQyzYeGJnjbzK-64" target="D1ktm93ZQyzYeGJnjbzK-63">
          <mxGeometry relative="1" as="geometry">
            <mxPoint x="770" y="1050" as="sourcePoint" />
            <mxPoint x="930" y="1050" as="targetPoint" />
          </mxGeometry>
        </mxCell>
        <mxCell id="D1ktm93ZQyzYeGJnjbzK-73" value="" style="endArrow=none;html=1;rounded=0;exitX=0.5;exitY=1;exitDx=0;exitDy=0;entryX=0.75;entryY=0;entryDx=0;entryDy=0;" edge="1" parent="1" source="D1ktm93ZQyzYeGJnjbzK-69" target="D1ktm93ZQyzYeGJnjbzK-63">
          <mxGeometry relative="1" as="geometry">
            <mxPoint x="840" y="1070" as="sourcePoint" />
            <mxPoint x="1000" y="1070" as="targetPoint" />
          </mxGeometry>
        </mxCell>
        <mxCell id="D1ktm93ZQyzYeGJnjbzK-74" value="" style="endArrow=none;html=1;rounded=0;entryX=0;entryY=0.75;entryDx=0;entryDy=0;exitX=0.5;exitY=0;exitDx=0;exitDy=0;" edge="1" parent="1" source="D1ktm93ZQyzYeGJnjbzK-66" target="D1ktm93ZQyzYeGJnjbzK-63">
          <mxGeometry relative="1" as="geometry">
            <mxPoint x="590" y="1170" as="sourcePoint" />
            <mxPoint x="750" y="1170" as="targetPoint" />
          </mxGeometry>
        </mxCell>
        <mxCell id="D1ktm93ZQyzYeGJnjbzK-75" value="" style="endArrow=none;html=1;rounded=0;exitX=0.25;exitY=1;exitDx=0;exitDy=0;" edge="1" parent="1" source="D1ktm93ZQyzYeGJnjbzK-63" target="D1ktm93ZQyzYeGJnjbzK-70">
          <mxGeometry relative="1" as="geometry">
            <mxPoint x="780" y="1180" as="sourcePoint" />
            <mxPoint x="940" y="1180" as="targetPoint" />
          </mxGeometry>
        </mxCell>
        <mxCell id="D1ktm93ZQyzYeGJnjbzK-76" value="" style="endArrow=none;html=1;rounded=0;exitX=0.5;exitY=1;exitDx=0;exitDy=0;entryX=0.5;entryY=0;entryDx=0;entryDy=0;" edge="1" parent="1" source="D1ktm93ZQyzYeGJnjbzK-63" target="D1ktm93ZQyzYeGJnjbzK-68">
          <mxGeometry relative="1" as="geometry">
            <mxPoint x="830" y="1170" as="sourcePoint" />
            <mxPoint x="990" y="1170" as="targetPoint" />
          </mxGeometry>
        </mxCell>
        <mxCell id="D1ktm93ZQyzYeGJnjbzK-77" value="has" style="shape=rhombus;double=1;perimeter=rhombusPerimeter;whiteSpace=wrap;html=1;align=center;" vertex="1" parent="1">
          <mxGeometry x="505" y="960" width="82.5" height="30" as="geometry" />
        </mxCell>
        <mxCell id="D1ktm93ZQyzYeGJnjbzK-78" value="" style="edgeStyle=entityRelationEdgeStyle;fontSize=12;html=1;endArrow=ERoneToMany;rounded=0;exitX=1;exitY=0.5;exitDx=0;exitDy=0;entryX=0;entryY=0.25;entryDx=0;entryDy=0;" edge="1" parent="1" source="D1ktm93ZQyzYeGJnjbzK-77" target="D1ktm93ZQyzYeGJnjbzK-63">
          <mxGeometry width="100" height="100" relative="1" as="geometry">
            <mxPoint x="560" y="935" as="sourcePoint" />
            <mxPoint x="660" y="835" as="targetPoint" />
          </mxGeometry>
        </mxCell>
        <mxCell id="D1ktm93ZQyzYeGJnjbzK-79" value="" style="edgeStyle=entityRelationEdgeStyle;fontSize=12;html=1;endArrow=ERone;endFill=1;rounded=0;entryX=1;entryY=0.5;entryDx=0;entryDy=0;exitX=0;exitY=0.5;exitDx=0;exitDy=0;" edge="1" parent="1" source="D1ktm93ZQyzYeGJnjbzK-77" target="D1ktm93ZQyzYeGJnjbzK-45">
          <mxGeometry width="100" height="100" relative="1" as="geometry">
            <mxPoint x="455" y="1015" as="sourcePoint" />
            <mxPoint x="395" y="885" as="targetPoint" />
          </mxGeometry>
        </mxCell>
        <mxCell id="D1ktm93ZQyzYeGJnjbzK-80" value="Learning_activities" style="whiteSpace=wrap;html=1;align=center;" vertex="1" parent="1">
          <mxGeometry x="1160" y="960" width="110" height="40" as="geometry" />
        </mxCell>
        <mxCell id="D1ktm93ZQyzYeGJnjbzK-82" value="Max_points" style="ellipse;whiteSpace=wrap;html=1;align=center;" vertex="1" parent="1">
          <mxGeometry x="1150" y="1100" width="100" height="40" as="geometry" />
        </mxCell>
        <mxCell id="D1ktm93ZQyzYeGJnjbzK-83" value="Instruction_details" style="ellipse;whiteSpace=wrap;html=1;align=center;" vertex="1" parent="1">
          <mxGeometry x="1225" y="1040" width="100" height="40" as="geometry" />
        </mxCell>
        <mxCell id="D1ktm93ZQyzYeGJnjbzK-84" value="Activity_type" style="ellipse;whiteSpace=wrap;html=1;align=center;" vertex="1" parent="1">
          <mxGeometry x="1175" y="820" width="100" height="40" as="geometry" />
        </mxCell>
        <mxCell id="D1ktm93ZQyzYeGJnjbzK-85" value="" style="endArrow=none;html=1;rounded=0;exitX=0.5;exitY=0;exitDx=0;exitDy=0;entryX=0.25;entryY=1;entryDx=0;entryDy=0;" edge="1" parent="1" source="D1ktm93ZQyzYeGJnjbzK-82" target="D1ktm93ZQyzYeGJnjbzK-80">
          <mxGeometry relative="1" as="geometry">
            <mxPoint x="1135" y="1020" as="sourcePoint" />
            <mxPoint x="1295" y="1020" as="targetPoint" />
          </mxGeometry>
        </mxCell>
        <mxCell id="D1ktm93ZQyzYeGJnjbzK-86" value="" style="endArrow=none;html=1;rounded=0;exitX=0.75;exitY=1;exitDx=0;exitDy=0;entryX=0.5;entryY=0;entryDx=0;entryDy=0;" edge="1" parent="1" source="D1ktm93ZQyzYeGJnjbzK-80" target="D1ktm93ZQyzYeGJnjbzK-83">
          <mxGeometry relative="1" as="geometry">
            <mxPoint x="1260" y="1020" as="sourcePoint" />
            <mxPoint x="1420" y="1020" as="targetPoint" />
          </mxGeometry>
        </mxCell>
        <mxCell id="D1ktm93ZQyzYeGJnjbzK-87" value="" style="endArrow=none;html=1;rounded=0;entryX=0.5;entryY=1;entryDx=0;entryDy=0;exitX=0.114;exitY=0.012;exitDx=0;exitDy=0;exitPerimeter=0;" edge="1" parent="1" source="D1ktm93ZQyzYeGJnjbzK-80" target="tkY_Gy2M9DlLA2ceVLeB-216">
          <mxGeometry relative="1" as="geometry">
            <mxPoint x="1162.5" y="960" as="sourcePoint" />
            <mxPoint x="1110" y="880" as="targetPoint" />
          </mxGeometry>
        </mxCell>
        <mxCell id="D1ktm93ZQyzYeGJnjbzK-88" value="" style="endArrow=none;html=1;rounded=0;exitX=0.5;exitY=1;exitDx=0;exitDy=0;entryX=0.5;entryY=0;entryDx=0;entryDy=0;" edge="1" parent="1" source="D1ktm93ZQyzYeGJnjbzK-84" target="D1ktm93ZQyzYeGJnjbzK-80">
          <mxGeometry relative="1" as="geometry">
            <mxPoint x="1360" y="915" as="sourcePoint" />
            <mxPoint x="1337.5" y="975" as="targetPoint" />
          </mxGeometry>
        </mxCell>
        <mxCell id="D1ktm93ZQyzYeGJnjbzK-93" value="" style="edgeStyle=entityRelationEdgeStyle;fontSize=12;html=1;endArrow=ERone;endFill=1;rounded=0;entryX=1;entryY=0.5;entryDx=0;entryDy=0;exitX=0;exitY=0.5;exitDx=0;exitDy=0;" edge="1" parent="1" source="tkY_Gy2M9DlLA2ceVLeB-152" target="D1ktm93ZQyzYeGJnjbzK-63">
          <mxGeometry width="100" height="100" relative="1" as="geometry">
            <mxPoint x="975" y="970" as="sourcePoint" />
            <mxPoint x="1160" y="940" as="targetPoint" />
          </mxGeometry>
        </mxCell>
        <mxCell id="D1ktm93ZQyzYeGJnjbzK-94" value="Achievements" style="whiteSpace=wrap;html=1;align=center;" vertex="1" parent="1">
          <mxGeometry x="-130" y="-115" width="120" height="40" as="geometry" />
        </mxCell>
        <mxCell id="D1ktm93ZQyzYeGJnjbzK-95" value="Status" style="ellipse;whiteSpace=wrap;html=1;align=center;" vertex="1" parent="1">
          <mxGeometry x="-585" y="880" width="100" height="40" as="geometry" />
        </mxCell>
        <mxCell id="D1ktm93ZQyzYeGJnjbzK-96" value="EnrollmentID" style="ellipse;whiteSpace=wrap;html=1;align=center;fontStyle=4;" vertex="1" parent="1">
          <mxGeometry x="-505" y="810" width="100" height="40" as="geometry" />
        </mxCell>
        <mxCell id="D1ktm93ZQyzYeGJnjbzK-97" value="Course_enrollment" style="shape=ext;margin=3;double=1;whiteSpace=wrap;html=1;align=center;" vertex="1" parent="1">
          <mxGeometry x="-535" y="950" width="120" height="50" as="geometry" />
        </mxCell>
        <mxCell id="D1ktm93ZQyzYeGJnjbzK-98" value="Completion_date" style="ellipse;whiteSpace=wrap;html=1;align=center;" vertex="1" parent="1">
          <mxGeometry x="-445" y="1080" width="100" height="40" as="geometry" />
        </mxCell>
        <mxCell id="D1ktm93ZQyzYeGJnjbzK-99" value="Enrollment_date" style="ellipse;whiteSpace=wrap;html=1;align=center;" vertex="1" parent="1">
          <mxGeometry x="-575" y="1080" width="100" height="40" as="geometry" />
        </mxCell>
        <mxCell id="D1ktm93ZQyzYeGJnjbzK-100" value="" style="endArrow=none;html=1;rounded=0;exitX=0.5;exitY=1;exitDx=0;exitDy=0;entryX=0.75;entryY=0;entryDx=0;entryDy=0;" edge="1" parent="1" source="D1ktm93ZQyzYeGJnjbzK-96" target="D1ktm93ZQyzYeGJnjbzK-97">
          <mxGeometry relative="1" as="geometry">
            <mxPoint x="-415" y="940" as="sourcePoint" />
            <mxPoint x="-255" y="940" as="targetPoint" />
          </mxGeometry>
        </mxCell>
        <mxCell id="D1ktm93ZQyzYeGJnjbzK-101" value="" style="endArrow=none;html=1;rounded=0;entryX=0.5;entryY=1;entryDx=0;entryDy=0;exitX=0.25;exitY=0;exitDx=0;exitDy=0;" edge="1" parent="1" source="D1ktm93ZQyzYeGJnjbzK-97" target="D1ktm93ZQyzYeGJnjbzK-95">
          <mxGeometry relative="1" as="geometry">
            <mxPoint x="-675" y="960" as="sourcePoint" />
            <mxPoint x="-515" y="960" as="targetPoint" />
          </mxGeometry>
        </mxCell>
        <mxCell id="D1ktm93ZQyzYeGJnjbzK-102" value="" style="endArrow=none;html=1;rounded=0;exitX=0.75;exitY=1;exitDx=0;exitDy=0;entryX=0.5;entryY=0;entryDx=0;entryDy=0;" edge="1" parent="1" source="D1ktm93ZQyzYeGJnjbzK-97" target="D1ktm93ZQyzYeGJnjbzK-98">
          <mxGeometry relative="1" as="geometry">
            <mxPoint x="-495" y="1150" as="sourcePoint" />
            <mxPoint x="-335" y="1150" as="targetPoint" />
          </mxGeometry>
        </mxCell>
        <mxCell id="D1ktm93ZQyzYeGJnjbzK-103" value="" style="endArrow=none;html=1;rounded=0;entryX=0.317;entryY=1;entryDx=0;entryDy=0;entryPerimeter=0;exitX=0.5;exitY=0;exitDx=0;exitDy=0;" edge="1" parent="1" source="D1ktm93ZQyzYeGJnjbzK-99" target="D1ktm93ZQyzYeGJnjbzK-97">
          <mxGeometry relative="1" as="geometry">
            <mxPoint x="-675" y="1040" as="sourcePoint" />
            <mxPoint x="-515" y="1040" as="targetPoint" />
          </mxGeometry>
        </mxCell>
        <mxCell id="D1ktm93ZQyzYeGJnjbzK-105" value="" style="edgeStyle=entityRelationEdgeStyle;fontSize=12;html=1;endArrow=ERoneToMany;rounded=0;exitX=0;exitY=0.5;exitDx=0;exitDy=0;entryX=1;entryY=0.5;entryDx=0;entryDy=0;" edge="1" parent="1" source="baV95Mj52eZd4zIyesq8-12" target="D1ktm93ZQyzYeGJnjbzK-97">
          <mxGeometry width="100" height="100" relative="1" as="geometry">
            <mxPoint x="-240" y="1130" as="sourcePoint" />
            <mxPoint x="-230" y="990" as="targetPoint" />
          </mxGeometry>
        </mxCell>
        <mxCell id="D1ktm93ZQyzYeGJnjbzK-110" value="AchievementID" style="ellipse;whiteSpace=wrap;html=1;align=center;fontStyle=4;" vertex="1" parent="1">
          <mxGeometry x="-190" y="-185" width="100" height="40" as="geometry" />
        </mxCell>
        <mxCell id="D1ktm93ZQyzYeGJnjbzK-111" value="Date_earned" style="ellipse;whiteSpace=wrap;html=1;align=center;" vertex="1" parent="1">
          <mxGeometry x="-180" y="-50" width="100" height="40" as="geometry" />
        </mxCell>
        <mxCell id="D1ktm93ZQyzYeGJnjbzK-112" value="Type" style="ellipse;whiteSpace=wrap;html=1;align=center;" vertex="1" parent="1">
          <mxGeometry x="-70" y="-40" width="100" height="40" as="geometry" />
        </mxCell>
        <mxCell id="D1ktm93ZQyzYeGJnjbzK-113" value="Description" style="ellipse;whiteSpace=wrap;html=1;align=center;" vertex="1" parent="1">
          <mxGeometry x="-60" y="-185" width="100" height="40" as="geometry" />
        </mxCell>
        <mxCell id="D1ktm93ZQyzYeGJnjbzK-114" value="" style="endArrow=none;html=1;rounded=0;exitX=0.5;exitY=1;exitDx=0;exitDy=0;entryX=0.25;entryY=0;entryDx=0;entryDy=0;" edge="1" parent="1" source="D1ktm93ZQyzYeGJnjbzK-110" target="D1ktm93ZQyzYeGJnjbzK-94">
          <mxGeometry relative="1" as="geometry">
            <mxPoint x="-130" y="-125" as="sourcePoint" />
            <mxPoint x="30" y="-125" as="targetPoint" />
          </mxGeometry>
        </mxCell>
        <mxCell id="D1ktm93ZQyzYeGJnjbzK-115" value="" style="endArrow=none;html=1;rounded=0;entryX=0.25;entryY=1;entryDx=0;entryDy=0;exitX=0.5;exitY=0;exitDx=0;exitDy=0;exitPerimeter=0;" edge="1" parent="1" source="D1ktm93ZQyzYeGJnjbzK-111" target="D1ktm93ZQyzYeGJnjbzK-94">
          <mxGeometry relative="1" as="geometry">
            <mxPoint x="-220" y="-35" as="sourcePoint" />
            <mxPoint x="-60" y="-35" as="targetPoint" />
          </mxGeometry>
        </mxCell>
        <mxCell id="D1ktm93ZQyzYeGJnjbzK-117" value="" style="endArrow=none;html=1;rounded=0;exitX=0.5;exitY=1;exitDx=0;exitDy=0;entryX=0.75;entryY=0;entryDx=0;entryDy=0;" edge="1" parent="1" source="D1ktm93ZQyzYeGJnjbzK-113" target="D1ktm93ZQyzYeGJnjbzK-94">
          <mxGeometry relative="1" as="geometry">
            <mxPoint x="-80" y="-115" as="sourcePoint" />
            <mxPoint x="80" y="-115" as="targetPoint" />
          </mxGeometry>
        </mxCell>
        <mxCell id="D1ktm93ZQyzYeGJnjbzK-118" value="" style="endArrow=none;html=1;rounded=0;exitX=0.75;exitY=1;exitDx=0;exitDy=0;entryX=0.5;entryY=0;entryDx=0;entryDy=0;" edge="1" parent="1" source="D1ktm93ZQyzYeGJnjbzK-94" target="D1ktm93ZQyzYeGJnjbzK-112">
          <mxGeometry relative="1" as="geometry">
            <mxPoint x="-70" y="-35" as="sourcePoint" />
            <mxPoint x="90" y="-35" as="targetPoint" />
          </mxGeometry>
        </mxCell>
        <mxCell id="D1ktm93ZQyzYeGJnjbzK-119" value="" style="edgeStyle=entityRelationEdgeStyle;fontSize=12;html=1;endArrow=ERone;endFill=1;rounded=0;entryX=0;entryY=0.25;entryDx=0;entryDy=0;exitX=1;exitY=0.5;exitDx=0;exitDy=0;" edge="1" parent="1" source="D1ktm93ZQyzYeGJnjbzK-120" target="D1ktm93ZQyzYeGJnjbzK-1">
          <mxGeometry width="100" height="100" relative="1" as="geometry">
            <mxPoint x="190" y="370" as="sourcePoint" />
            <mxPoint x="330" y="400" as="targetPoint" />
            <Array as="points">
              <mxPoint x="170" y="370" />
              <mxPoint x="370" y="400" />
            </Array>
          </mxGeometry>
        </mxCell>
        <mxCell id="D1ktm93ZQyzYeGJnjbzK-120" value="Achieves" style="shape=rhombus;perimeter=rhombusPerimeter;whiteSpace=wrap;html=1;align=center;" vertex="1" parent="1">
          <mxGeometry x="130" y="55" width="80" height="40" as="geometry" />
        </mxCell>
        <mxCell id="D1ktm93ZQyzYeGJnjbzK-121" value="" style="edgeStyle=entityRelationEdgeStyle;fontSize=12;html=1;endArrow=ERoneToMany;rounded=0;entryX=1;entryY=0.5;entryDx=0;entryDy=0;exitX=0;exitY=0.5;exitDx=0;exitDy=0;" edge="1" parent="1" source="D1ktm93ZQyzYeGJnjbzK-120" target="D1ktm93ZQyzYeGJnjbzK-94">
          <mxGeometry width="100" height="100" relative="1" as="geometry">
            <mxPoint x="140" y="15" as="sourcePoint" />
            <mxPoint x="240" y="-85" as="targetPoint" />
          </mxGeometry>
        </mxCell>
        <mxCell id="D1ktm93ZQyzYeGJnjbzK-122" value="Badge" style="whiteSpace=wrap;html=1;align=center;" vertex="1" parent="1">
          <mxGeometry x="-550" y="-15" width="100" height="40" as="geometry" />
        </mxCell>
        <mxCell id="D1ktm93ZQyzYeGJnjbzK-123" value="BadgeID" style="ellipse;whiteSpace=wrap;html=1;align=center;fontStyle=4;" vertex="1" parent="1">
          <mxGeometry x="-605" y="-100" width="100" height="40" as="geometry" />
        </mxCell>
        <mxCell id="D1ktm93ZQyzYeGJnjbzK-124" value="Title" style="ellipse;whiteSpace=wrap;html=1;align=center;" vertex="1" parent="1">
          <mxGeometry x="-475" y="-100" width="100" height="40" as="geometry" />
        </mxCell>
        <mxCell id="D1ktm93ZQyzYeGJnjbzK-125" value="Description" style="ellipse;whiteSpace=wrap;html=1;align=center;" vertex="1" parent="1">
          <mxGeometry x="-620" y="75" width="100" height="40" as="geometry" />
        </mxCell>
        <mxCell id="D1ktm93ZQyzYeGJnjbzK-126" value="Criteria" style="ellipse;whiteSpace=wrap;html=1;align=center;" vertex="1" parent="1">
          <mxGeometry x="-540" y="120" width="100" height="40" as="geometry" />
        </mxCell>
        <mxCell id="D1ktm93ZQyzYeGJnjbzK-127" value="Points" style="ellipse;whiteSpace=wrap;html=1;align=center;" vertex="1" parent="1">
          <mxGeometry x="-470" y="70" width="100" height="40" as="geometry" />
        </mxCell>
        <mxCell id="D1ktm93ZQyzYeGJnjbzK-128" value="" style="endArrow=none;html=1;rounded=0;exitX=0.5;exitY=0;exitDx=0;exitDy=0;entryX=0.25;entryY=1;entryDx=0;entryDy=0;" edge="1" parent="1" source="D1ktm93ZQyzYeGJnjbzK-125" target="D1ktm93ZQyzYeGJnjbzK-122">
          <mxGeometry relative="1" as="geometry">
            <mxPoint x="-565" y="80" as="sourcePoint" />
            <mxPoint x="-405" y="80" as="targetPoint" />
          </mxGeometry>
        </mxCell>
        <mxCell id="D1ktm93ZQyzYeGJnjbzK-129" value="" style="endArrow=none;html=1;rounded=0;exitX=0.5;exitY=1;exitDx=0;exitDy=0;entryX=0.5;entryY=0;entryDx=0;entryDy=0;" edge="1" parent="1" source="D1ktm93ZQyzYeGJnjbzK-122" target="D1ktm93ZQyzYeGJnjbzK-126">
          <mxGeometry relative="1" as="geometry">
            <mxPoint x="-550" y="265" as="sourcePoint" />
            <mxPoint x="-390" y="265" as="targetPoint" />
          </mxGeometry>
        </mxCell>
        <mxCell id="D1ktm93ZQyzYeGJnjbzK-130" value="" style="endArrow=none;html=1;rounded=0;exitX=0.75;exitY=1;exitDx=0;exitDy=0;entryX=0.5;entryY=0;entryDx=0;entryDy=0;" edge="1" parent="1" source="D1ktm93ZQyzYeGJnjbzK-122" target="D1ktm93ZQyzYeGJnjbzK-127">
          <mxGeometry relative="1" as="geometry">
            <mxPoint x="-565" y="80" as="sourcePoint" />
            <mxPoint x="-405" y="80" as="targetPoint" />
          </mxGeometry>
        </mxCell>
        <mxCell id="D1ktm93ZQyzYeGJnjbzK-131" value="" style="endArrow=none;html=1;rounded=0;exitX=0.5;exitY=1;exitDx=0;exitDy=0;entryX=0.25;entryY=0;entryDx=0;entryDy=0;" edge="1" parent="1" source="D1ktm93ZQyzYeGJnjbzK-123" target="D1ktm93ZQyzYeGJnjbzK-122">
          <mxGeometry relative="1" as="geometry">
            <mxPoint x="-575" y="-40" as="sourcePoint" />
            <mxPoint x="-415" y="-40" as="targetPoint" />
          </mxGeometry>
        </mxCell>
        <mxCell id="D1ktm93ZQyzYeGJnjbzK-132" value="" style="endArrow=none;html=1;rounded=0;exitX=0.5;exitY=1;exitDx=0;exitDy=0;entryX=0.75;entryY=0;entryDx=0;entryDy=0;" edge="1" parent="1" source="D1ktm93ZQyzYeGJnjbzK-124" target="D1ktm93ZQyzYeGJnjbzK-122">
          <mxGeometry relative="1" as="geometry">
            <mxPoint x="-475" y="-30.569999999999993" as="sourcePoint" />
            <mxPoint x="-315" y="-30.569999999999993" as="targetPoint" />
          </mxGeometry>
        </mxCell>
        <mxCell id="D1ktm93ZQyzYeGJnjbzK-133" value="ReceivedBadge" style="shape=rhombus;perimeter=rhombusPerimeter;whiteSpace=wrap;html=1;align=center;" vertex="1" parent="1">
          <mxGeometry x="-340" y="-50" width="108" height="60" as="geometry" />
        </mxCell>
        <mxCell id="D1ktm93ZQyzYeGJnjbzK-134" value="" style="edgeStyle=entityRelationEdgeStyle;fontSize=12;html=1;endArrow=ERoneToMany;rounded=0;entryX=0;entryY=0.5;entryDx=0;entryDy=0;exitX=1;exitY=0.5;exitDx=0;exitDy=0;" edge="1" parent="1" source="D1ktm93ZQyzYeGJnjbzK-133" target="D1ktm93ZQyzYeGJnjbzK-94">
          <mxGeometry width="100" height="100" relative="1" as="geometry">
            <mxPoint x="-330" y="15" as="sourcePoint" />
            <mxPoint x="-230" y="-85" as="targetPoint" />
          </mxGeometry>
        </mxCell>
        <mxCell id="D1ktm93ZQyzYeGJnjbzK-136" value="Learning_path" style="whiteSpace=wrap;html=1;align=center;" vertex="1" parent="1">
          <mxGeometry x="1955" y="190" width="100" height="40" as="geometry" />
        </mxCell>
        <mxCell id="D1ktm93ZQyzYeGJnjbzK-137" value="Custom_content" style="ellipse;whiteSpace=wrap;html=1;align=center;" vertex="1" parent="1">
          <mxGeometry x="2140" y="185" width="100" height="40" as="geometry" />
        </mxCell>
        <mxCell id="D1ktm93ZQyzYeGJnjbzK-138" value="Completion_status" style="ellipse;whiteSpace=wrap;html=1;align=center;" vertex="1" parent="1">
          <mxGeometry x="2015" y="80" width="110" height="40" as="geometry" />
        </mxCell>
        <mxCell id="D1ktm93ZQyzYeGJnjbzK-139" value="PathID" style="ellipse;whiteSpace=wrap;html=1;align=center;fontStyle=4;" vertex="1" parent="1">
          <mxGeometry x="1895" y="80" width="100" height="40" as="geometry" />
        </mxCell>
        <mxCell id="D1ktm93ZQyzYeGJnjbzK-140" value="Adaptive_rules" style="ellipse;whiteSpace=wrap;html=1;align=center;" vertex="1" parent="1">
          <mxGeometry x="2015" y="270" width="100" height="40" as="geometry" />
        </mxCell>
        <mxCell id="D1ktm93ZQyzYeGJnjbzK-141" value="" style="endArrow=none;html=1;rounded=0;exitX=0.5;exitY=1;exitDx=0;exitDy=0;entryX=0.25;entryY=0;entryDx=0;entryDy=0;" edge="1" parent="1" source="D1ktm93ZQyzYeGJnjbzK-139" target="D1ktm93ZQyzYeGJnjbzK-136">
          <mxGeometry relative="1" as="geometry">
            <mxPoint x="1855" y="180" as="sourcePoint" />
            <mxPoint x="2015" y="180" as="targetPoint" />
          </mxGeometry>
        </mxCell>
        <mxCell id="D1ktm93ZQyzYeGJnjbzK-142" value="" style="endArrow=none;html=1;rounded=0;exitX=0.5;exitY=1;exitDx=0;exitDy=0;entryX=0.75;entryY=0;entryDx=0;entryDy=0;" edge="1" parent="1" source="D1ktm93ZQyzYeGJnjbzK-138" target="D1ktm93ZQyzYeGJnjbzK-136">
          <mxGeometry relative="1" as="geometry">
            <mxPoint x="1855" y="180" as="sourcePoint" />
            <mxPoint x="2015" y="180" as="targetPoint" />
          </mxGeometry>
        </mxCell>
        <mxCell id="D1ktm93ZQyzYeGJnjbzK-143" value="" style="endArrow=none;html=1;rounded=0;exitX=0;exitY=0.5;exitDx=0;exitDy=0;entryX=1;entryY=0.5;entryDx=0;entryDy=0;" edge="1" parent="1" source="D1ktm93ZQyzYeGJnjbzK-137" target="D1ktm93ZQyzYeGJnjbzK-136">
          <mxGeometry relative="1" as="geometry">
            <mxPoint x="1855" y="180" as="sourcePoint" />
            <mxPoint x="2015" y="180" as="targetPoint" />
          </mxGeometry>
        </mxCell>
        <mxCell id="D1ktm93ZQyzYeGJnjbzK-144" value="" style="endArrow=none;html=1;rounded=0;entryX=0.5;entryY=0;entryDx=0;entryDy=0;exitX=0.75;exitY=1;exitDx=0;exitDy=0;" edge="1" parent="1" source="D1ktm93ZQyzYeGJnjbzK-136" target="D1ktm93ZQyzYeGJnjbzK-140">
          <mxGeometry relative="1" as="geometry">
            <mxPoint x="1895" y="249.43" as="sourcePoint" />
            <mxPoint x="2055" y="249.43" as="targetPoint" />
          </mxGeometry>
        </mxCell>
        <mxCell id="D1ktm93ZQyzYeGJnjbzK-145" value="has" style="shape=rhombus;perimeter=rhombusPerimeter;whiteSpace=wrap;html=1;align=center;" vertex="1" parent="1">
          <mxGeometry x="1325" y="190" width="100" height="40" as="geometry" />
        </mxCell>
        <mxCell id="D1ktm93ZQyzYeGJnjbzK-146" value="" style="edgeStyle=entityRelationEdgeStyle;fontSize=12;html=1;endArrow=ERone;endFill=1;rounded=0;entryX=1;entryY=0.5;entryDx=0;entryDy=0;exitX=0;exitY=0.5;exitDx=0;exitDy=0;" edge="1" parent="1" source="D1ktm93ZQyzYeGJnjbzK-145" target="D1ktm93ZQyzYeGJnjbzK-3">
          <mxGeometry width="100" height="100" relative="1" as="geometry">
            <mxPoint x="976.25" y="235" as="sourcePoint" />
            <mxPoint x="1076.25" y="135" as="targetPoint" />
          </mxGeometry>
        </mxCell>
        <mxCell id="D1ktm93ZQyzYeGJnjbzK-147" value="" style="edgeStyle=entityRelationEdgeStyle;fontSize=12;html=1;endArrow=ERoneToMany;rounded=0;entryX=0;entryY=0.5;entryDx=0;entryDy=0;exitX=1;exitY=0.5;exitDx=0;exitDy=0;" edge="1" parent="1" source="D1ktm93ZQyzYeGJnjbzK-145" target="D1ktm93ZQyzYeGJnjbzK-136">
          <mxGeometry width="100" height="100" relative="1" as="geometry">
            <mxPoint x="976.25" y="235" as="sourcePoint" />
            <mxPoint x="1076.25" y="135" as="targetPoint" />
          </mxGeometry>
        </mxCell>
        <mxCell id="D1ktm93ZQyzYeGJnjbzK-148" value="Leaderboard" style="whiteSpace=wrap;html=1;align=center;" vertex="1" parent="1">
          <mxGeometry x="-75" y="670" width="100" height="40" as="geometry" />
        </mxCell>
        <mxCell id="D1ktm93ZQyzYeGJnjbzK-149" value="BoardID" style="ellipse;whiteSpace=wrap;html=1;align=center;fontStyle=4;" vertex="1" parent="1">
          <mxGeometry x="-205" y="710" width="100" height="40" as="geometry" />
        </mxCell>
        <mxCell id="D1ktm93ZQyzYeGJnjbzK-151" value="Total_points" style="ellipse;whiteSpace=wrap;html=1;align=center;" vertex="1" parent="1">
          <mxGeometry x="165" y="500" width="100" height="40" as="geometry" />
        </mxCell>
        <mxCell id="D1ktm93ZQyzYeGJnjbzK-152" value="Rank" style="ellipse;whiteSpace=wrap;html=1;align=center;" vertex="1" parent="1">
          <mxGeometry x="60" y="660" width="100" height="40" as="geometry" />
        </mxCell>
        <mxCell id="D1ktm93ZQyzYeGJnjbzK-153" value="Season" style="ellipse;whiteSpace=wrap;html=1;align=center;" vertex="1" parent="1">
          <mxGeometry x="-60" y="810" width="100" height="40" as="geometry" />
        </mxCell>
        <mxCell id="D1ktm93ZQyzYeGJnjbzK-155" value="" style="endArrow=none;html=1;rounded=0;exitX=1;exitY=0.5;exitDx=0;exitDy=0;entryX=0;entryY=0.75;entryDx=0;entryDy=0;" edge="1" parent="1" source="D1ktm93ZQyzYeGJnjbzK-149" target="D1ktm93ZQyzYeGJnjbzK-148">
          <mxGeometry relative="1" as="geometry">
            <mxPoint x="-35" y="580" as="sourcePoint" />
            <mxPoint x="125" y="580" as="targetPoint" />
          </mxGeometry>
        </mxCell>
        <mxCell id="D1ktm93ZQyzYeGJnjbzK-156" value="" style="endArrow=none;html=1;rounded=0;entryX=0.5;entryY=1;entryDx=0;entryDy=0;exitX=0;exitY=0.5;exitDx=0;exitDy=0;" edge="1" parent="1" target="D1ktm93ZQyzYeGJnjbzK-151">
          <mxGeometry relative="1" as="geometry">
            <mxPoint x="130" y="610" as="sourcePoint" />
            <mxPoint x="330" y="500" as="targetPoint" />
          </mxGeometry>
        </mxCell>
        <mxCell id="D1ktm93ZQyzYeGJnjbzK-157" value="" style="endArrow=none;html=1;rounded=0;entryX=0.25;entryY=1;entryDx=0;entryDy=0;exitX=0.5;exitY=0;exitDx=0;exitDy=0;" edge="1" parent="1" source="D1ktm93ZQyzYeGJnjbzK-152">
          <mxGeometry relative="1" as="geometry">
            <mxPoint x="115" y="560" as="sourcePoint" />
            <mxPoint x="130" y="620" as="targetPoint" />
          </mxGeometry>
        </mxCell>
        <mxCell id="D1ktm93ZQyzYeGJnjbzK-158" value="" style="endArrow=none;html=1;rounded=0;entryX=0.5;entryY=0;entryDx=0;entryDy=0;exitX=0.75;exitY=1;exitDx=0;exitDy=0;" edge="1" parent="1" source="D1ktm93ZQyzYeGJnjbzK-148" target="D1ktm93ZQyzYeGJnjbzK-153">
          <mxGeometry relative="1" as="geometry">
            <mxPoint x="-35" y="580" as="sourcePoint" />
            <mxPoint x="125" y="580" as="targetPoint" />
          </mxGeometry>
        </mxCell>
        <mxCell id="tkY_Gy2M9DlLA2ceVLeB-2" value="Ranking" style="shape=rhombus;perimeter=rhombusPerimeter;whiteSpace=wrap;html=1;align=center;" vertex="1" parent="1">
          <mxGeometry x="80" y="560" width="120" height="60" as="geometry" />
        </mxCell>
        <mxCell id="tkY_Gy2M9DlLA2ceVLeB-4" value="" style="edgeStyle=entityRelationEdgeStyle;fontSize=12;html=1;endArrow=ERoneToMany;rounded=0;startSize=8;endSize=8;curved=1;entryX=1;entryY=0.25;entryDx=0;entryDy=0;exitX=0;exitY=0.5;exitDx=0;exitDy=0;" edge="1" parent="1" source="tkY_Gy2M9DlLA2ceVLeB-2" target="D1ktm93ZQyzYeGJnjbzK-148">
          <mxGeometry width="100" height="100" relative="1" as="geometry">
            <mxPoint x="60" y="780" as="sourcePoint" />
            <mxPoint x="160" y="680" as="targetPoint" />
          </mxGeometry>
        </mxCell>
        <mxCell id="tkY_Gy2M9DlLA2ceVLeB-6" value="" style="edgeStyle=entityRelationEdgeStyle;fontSize=12;html=1;endArrow=ERone;endFill=1;rounded=0;startSize=8;endSize=8;curved=1;entryX=0;entryY=0.25;entryDx=0;entryDy=0;exitX=0.5;exitY=1;exitDx=0;exitDy=0;" edge="1" parent="1" source="tkY_Gy2M9DlLA2ceVLeB-2" target="D1ktm93ZQyzYeGJnjbzK-45">
          <mxGeometry width="100" height="100" relative="1" as="geometry">
            <mxPoint x="130" y="870" as="sourcePoint" />
            <mxPoint x="50" y="680" as="targetPoint" />
          </mxGeometry>
        </mxCell>
        <mxCell id="tkY_Gy2M9DlLA2ceVLeB-7" value="Interaction_log" style="whiteSpace=wrap;html=1;align=center;" vertex="1" parent="1">
          <mxGeometry x="980" y="690" width="100" height="40" as="geometry" />
        </mxCell>
        <mxCell id="tkY_Gy2M9DlLA2ceVLeB-8" value="LogID" style="ellipse;whiteSpace=wrap;html=1;align=center;fontStyle=4;" vertex="1" parent="1">
          <mxGeometry x="955" y="580" width="100" height="40" as="geometry" />
        </mxCell>
        <mxCell id="tkY_Gy2M9DlLA2ceVLeB-9" value="Timestamp" style="ellipse;whiteSpace=wrap;html=1;align=center;" vertex="1" parent="1">
          <mxGeometry x="1110" y="630" width="100" height="40" as="geometry" />
        </mxCell>
        <mxCell id="tkY_Gy2M9DlLA2ceVLeB-10" value="Duration" style="ellipse;whiteSpace=wrap;html=1;align=center;" vertex="1" parent="1">
          <mxGeometry x="1066.25" y="570" width="100" height="40" as="geometry" />
        </mxCell>
        <mxCell id="tkY_Gy2M9DlLA2ceVLeB-11" value="Action_type" style="ellipse;whiteSpace=wrap;html=1;align=center;" vertex="1" parent="1">
          <mxGeometry x="950" y="760" width="100" height="40" as="geometry" />
        </mxCell>
        <mxCell id="tkY_Gy2M9DlLA2ceVLeB-12" value="" style="endArrow=none;html=1;rounded=0;fontSize=12;startSize=8;endSize=8;curved=1;exitX=0.5;exitY=1;exitDx=0;exitDy=0;entryX=0.25;entryY=0;entryDx=0;entryDy=0;" edge="1" parent="1" source="tkY_Gy2M9DlLA2ceVLeB-8" target="tkY_Gy2M9DlLA2ceVLeB-7">
          <mxGeometry relative="1" as="geometry">
            <mxPoint x="1060" y="700" as="sourcePoint" />
            <mxPoint x="1220" y="700" as="targetPoint" />
          </mxGeometry>
        </mxCell>
        <mxCell id="tkY_Gy2M9DlLA2ceVLeB-13" value="" style="endArrow=none;html=1;rounded=0;fontSize=12;startSize=8;endSize=8;curved=1;exitX=0.5;exitY=1;exitDx=0;exitDy=0;entryX=0.5;entryY=0;entryDx=0;entryDy=0;" edge="1" parent="1" source="tkY_Gy2M9DlLA2ceVLeB-10" target="tkY_Gy2M9DlLA2ceVLeB-7">
          <mxGeometry relative="1" as="geometry">
            <mxPoint x="1120" y="630" as="sourcePoint" />
            <mxPoint x="1280" y="630" as="targetPoint" />
          </mxGeometry>
        </mxCell>
        <mxCell id="tkY_Gy2M9DlLA2ceVLeB-14" value="" style="endArrow=none;html=1;rounded=0;fontSize=12;startSize=8;endSize=8;curved=1;exitX=0.017;exitY=0.643;exitDx=0;exitDy=0;exitPerimeter=0;" edge="1" parent="1" source="tkY_Gy2M9DlLA2ceVLeB-9" target="tkY_Gy2M9DlLA2ceVLeB-7">
          <mxGeometry relative="1" as="geometry">
            <mxPoint x="1060" y="700" as="sourcePoint" />
            <mxPoint x="1220" y="700" as="targetPoint" />
          </mxGeometry>
        </mxCell>
        <mxCell id="tkY_Gy2M9DlLA2ceVLeB-15" value="" style="endArrow=none;html=1;rounded=0;fontSize=12;startSize=8;endSize=8;curved=1;exitX=0.5;exitY=1;exitDx=0;exitDy=0;" edge="1" parent="1" source="tkY_Gy2M9DlLA2ceVLeB-7" target="tkY_Gy2M9DlLA2ceVLeB-11">
          <mxGeometry relative="1" as="geometry">
            <mxPoint x="1010" y="690" as="sourcePoint" />
            <mxPoint x="1220" y="700" as="targetPoint" />
          </mxGeometry>
        </mxCell>
        <mxCell id="tkY_Gy2M9DlLA2ceVLeB-17" value="of" style="shape=rhombus;perimeter=rhombusPerimeter;whiteSpace=wrap;html=1;align=center;" vertex="1" parent="1">
          <mxGeometry x="750" y="420" width="120" height="60" as="geometry" />
        </mxCell>
        <mxCell id="tkY_Gy2M9DlLA2ceVLeB-19" value="" style="edgeStyle=entityRelationEdgeStyle;fontSize=12;html=1;endArrow=ERoneToMany;rounded=0;startSize=8;endSize=8;curved=1;entryX=1;entryY=0.75;entryDx=0;entryDy=0;" edge="1" parent="1" source="tkY_Gy2M9DlLA2ceVLeB-16" target="tkY_Gy2M9DlLA2ceVLeB-7">
          <mxGeometry width="100" height="100" relative="1" as="geometry">
            <mxPoint x="1090" y="750" as="sourcePoint" />
            <mxPoint x="1190" y="650" as="targetPoint" />
          </mxGeometry>
        </mxCell>
        <mxCell id="tkY_Gy2M9DlLA2ceVLeB-16" value="Logs" style="shape=rhombus;perimeter=rhombusPerimeter;whiteSpace=wrap;html=1;align=center;" vertex="1" parent="1">
          <mxGeometry x="1150" y="690" width="120" height="60" as="geometry" />
        </mxCell>
        <mxCell id="tkY_Gy2M9DlLA2ceVLeB-25" value="" style="edgeStyle=entityRelationEdgeStyle;fontSize=12;html=1;endArrow=ERoneToMany;rounded=0;startSize=8;endSize=8;curved=1;exitX=1;exitY=0.5;exitDx=0;exitDy=0;entryX=0;entryY=0.5;entryDx=0;entryDy=0;" edge="1" parent="1" source="tkY_Gy2M9DlLA2ceVLeB-17" target="tkY_Gy2M9DlLA2ceVLeB-7">
          <mxGeometry width="100" height="100" relative="1" as="geometry">
            <mxPoint x="1090" y="750" as="sourcePoint" />
            <mxPoint x="1190" y="650" as="targetPoint" />
          </mxGeometry>
        </mxCell>
        <mxCell id="tkY_Gy2M9DlLA2ceVLeB-26" value="" style="edgeStyle=entityRelationEdgeStyle;fontSize=12;html=1;endArrow=ERone;endFill=1;rounded=0;startSize=8;endSize=8;curved=1;entryX=1;entryY=0.75;entryDx=0;entryDy=0;exitX=0;exitY=0.5;exitDx=0;exitDy=0;" edge="1" parent="1" source="tkY_Gy2M9DlLA2ceVLeB-17" target="D1ktm93ZQyzYeGJnjbzK-1">
          <mxGeometry width="100" height="100" relative="1" as="geometry">
            <mxPoint x="1150" y="680" as="sourcePoint" />
            <mxPoint x="1250" y="580" as="targetPoint" />
            <Array as="points">
              <mxPoint x="470" y="420" />
            </Array>
          </mxGeometry>
        </mxCell>
        <mxCell id="tkY_Gy2M9DlLA2ceVLeB-27" value="Quest" style="whiteSpace=wrap;html=1;align=center;" vertex="1" parent="1">
          <mxGeometry x="540" y="-360" width="100" height="40" as="geometry" />
        </mxCell>
        <mxCell id="tkY_Gy2M9DlLA2ceVLeB-28" value="Reward" style="whiteSpace=wrap;html=1;align=center;" vertex="1" parent="1">
          <mxGeometry x="-20" y="-360" width="100" height="40" as="geometry" />
        </mxCell>
        <mxCell id="tkY_Gy2M9DlLA2ceVLeB-29" value="QuestID" style="ellipse;whiteSpace=wrap;html=1;align=center;fontStyle=4;" vertex="1" parent="1">
          <mxGeometry x="390" y="-470" width="100" height="40" as="geometry" />
        </mxCell>
        <mxCell id="tkY_Gy2M9DlLA2ceVLeB-30" value="RewardID" style="ellipse;whiteSpace=wrap;html=1;align=center;fontStyle=4;" vertex="1" parent="1">
          <mxGeometry x="-100" y="-470" width="100" height="40" as="geometry" />
        </mxCell>
        <mxCell id="tkY_Gy2M9DlLA2ceVLeB-31" value="Value" style="ellipse;whiteSpace=wrap;html=1;align=center;" vertex="1" parent="1">
          <mxGeometry x="-190" y="-360" width="100" height="40" as="geometry" />
        </mxCell>
        <mxCell id="tkY_Gy2M9DlLA2ceVLeB-32" value="Description" style="ellipse;whiteSpace=wrap;html=1;align=center;" vertex="1" parent="1">
          <mxGeometry x="75" y="-470" width="100" height="40" as="geometry" />
        </mxCell>
        <mxCell id="tkY_Gy2M9DlLA2ceVLeB-33" value="Type" style="ellipse;whiteSpace=wrap;html=1;align=center;" vertex="1" parent="1">
          <mxGeometry x="150" y="-360" width="100" height="40" as="geometry" />
        </mxCell>
        <mxCell id="tkY_Gy2M9DlLA2ceVLeB-34" value="Difficulty_level" style="ellipse;whiteSpace=wrap;html=1;align=center;" vertex="1" parent="1">
          <mxGeometry x="540" y="-480" width="100" height="40" as="geometry" />
        </mxCell>
        <mxCell id="tkY_Gy2M9DlLA2ceVLeB-35" value="Description" style="ellipse;whiteSpace=wrap;html=1;align=center;" vertex="1" parent="1">
          <mxGeometry x="735" y="-360" width="100" height="40" as="geometry" />
        </mxCell>
        <mxCell id="tkY_Gy2M9DlLA2ceVLeB-36" value="Title" style="ellipse;whiteSpace=wrap;html=1;align=center;" vertex="1" parent="1">
          <mxGeometry x="350" y="-360" width="100" height="40" as="geometry" />
        </mxCell>
        <mxCell id="tkY_Gy2M9DlLA2ceVLeB-37" value="Criteria" style="ellipse;whiteSpace=wrap;html=1;align=center;" vertex="1" parent="1">
          <mxGeometry x="670" y="-470" width="100" height="40" as="geometry" />
        </mxCell>
        <mxCell id="tkY_Gy2M9DlLA2ceVLeB-38" value="" style="endArrow=none;html=1;rounded=0;fontSize=12;startSize=8;endSize=8;curved=1;exitX=0.5;exitY=1;exitDx=0;exitDy=0;entryX=0.25;entryY=0;entryDx=0;entryDy=0;" edge="1" parent="1" source="tkY_Gy2M9DlLA2ceVLeB-30" target="tkY_Gy2M9DlLA2ceVLeB-28">
          <mxGeometry relative="1" as="geometry">
            <mxPoint x="-30" y="-390" as="sourcePoint" />
            <mxPoint x="130" y="-390" as="targetPoint" />
          </mxGeometry>
        </mxCell>
        <mxCell id="tkY_Gy2M9DlLA2ceVLeB-39" value="" style="endArrow=none;html=1;rounded=0;fontSize=12;startSize=8;endSize=8;curved=1;exitX=0.5;exitY=0;exitDx=0;exitDy=0;entryX=0.5;entryY=1;entryDx=0;entryDy=0;" edge="1" parent="1" source="tkY_Gy2M9DlLA2ceVLeB-28" target="tkY_Gy2M9DlLA2ceVLeB-32">
          <mxGeometry relative="1" as="geometry">
            <mxPoint x="90" y="-400" as="sourcePoint" />
            <mxPoint x="250" y="-400" as="targetPoint" />
          </mxGeometry>
        </mxCell>
        <mxCell id="tkY_Gy2M9DlLA2ceVLeB-40" value="" style="endArrow=none;html=1;rounded=0;fontSize=12;startSize=8;endSize=8;curved=1;entryX=-0.006;entryY=0.649;entryDx=0;entryDy=0;entryPerimeter=0;exitX=1;exitY=0.5;exitDx=0;exitDy=0;" edge="1" parent="1" source="tkY_Gy2M9DlLA2ceVLeB-31" target="tkY_Gy2M9DlLA2ceVLeB-28">
          <mxGeometry relative="1" as="geometry">
            <mxPoint x="-130" y="-270" as="sourcePoint" />
            <mxPoint x="30" y="-270" as="targetPoint" />
          </mxGeometry>
        </mxCell>
        <mxCell id="tkY_Gy2M9DlLA2ceVLeB-41" value="" style="endArrow=none;html=1;rounded=0;fontSize=12;startSize=8;endSize=8;curved=1;entryX=0;entryY=0.5;entryDx=0;entryDy=0;exitX=1;exitY=0.5;exitDx=0;exitDy=0;" edge="1" parent="1" source="tkY_Gy2M9DlLA2ceVLeB-28" target="tkY_Gy2M9DlLA2ceVLeB-33">
          <mxGeometry relative="1" as="geometry">
            <mxPoint x="45" y="-260" as="sourcePoint" />
            <mxPoint x="205" y="-260" as="targetPoint" />
          </mxGeometry>
        </mxCell>
        <mxCell id="tkY_Gy2M9DlLA2ceVLeB-42" value="" style="endArrow=none;html=1;rounded=0;fontSize=12;startSize=8;endSize=8;curved=1;entryX=0;entryY=0.5;entryDx=0;entryDy=0;exitX=1;exitY=0.5;exitDx=0;exitDy=0;" edge="1" parent="1" source="tkY_Gy2M9DlLA2ceVLeB-36" target="tkY_Gy2M9DlLA2ceVLeB-27">
          <mxGeometry relative="1" as="geometry">
            <mxPoint x="370" y="-300" as="sourcePoint" />
            <mxPoint x="530" y="-300" as="targetPoint" />
          </mxGeometry>
        </mxCell>
        <mxCell id="tkY_Gy2M9DlLA2ceVLeB-43" value="" style="endArrow=none;html=1;rounded=0;fontSize=12;startSize=8;endSize=8;curved=1;exitX=0.688;exitY=0.985;exitDx=0;exitDy=0;exitPerimeter=0;entryX=0.25;entryY=0;entryDx=0;entryDy=0;" edge="1" parent="1" source="tkY_Gy2M9DlLA2ceVLeB-29" target="tkY_Gy2M9DlLA2ceVLeB-27">
          <mxGeometry relative="1" as="geometry">
            <mxPoint x="482.5" y="-400" as="sourcePoint" />
            <mxPoint x="642.5" y="-400" as="targetPoint" />
          </mxGeometry>
        </mxCell>
        <mxCell id="tkY_Gy2M9DlLA2ceVLeB-44" value="" style="endArrow=none;html=1;rounded=0;fontSize=12;startSize=8;endSize=8;curved=1;exitX=0.5;exitY=1;exitDx=0;exitDy=0;entryX=0.5;entryY=0;entryDx=0;entryDy=0;" edge="1" parent="1" source="tkY_Gy2M9DlLA2ceVLeB-34" target="tkY_Gy2M9DlLA2ceVLeB-27">
          <mxGeometry relative="1" as="geometry">
            <mxPoint x="583.75" y="-390" as="sourcePoint" />
            <mxPoint x="743.75" y="-390" as="targetPoint" />
          </mxGeometry>
        </mxCell>
        <mxCell id="tkY_Gy2M9DlLA2ceVLeB-45" value="" style="endArrow=none;html=1;rounded=0;fontSize=12;startSize=8;endSize=8;curved=1;exitX=0.75;exitY=0;exitDx=0;exitDy=0;entryX=0.5;entryY=1;entryDx=0;entryDy=0;" edge="1" parent="1" source="tkY_Gy2M9DlLA2ceVLeB-27" target="tkY_Gy2M9DlLA2ceVLeB-37">
          <mxGeometry relative="1" as="geometry">
            <mxPoint x="645" y="-400" as="sourcePoint" />
            <mxPoint x="805" y="-400" as="targetPoint" />
          </mxGeometry>
        </mxCell>
        <mxCell id="tkY_Gy2M9DlLA2ceVLeB-46" value="" style="endArrow=none;html=1;rounded=0;fontSize=12;startSize=8;endSize=8;curved=1;exitX=1;exitY=0.5;exitDx=0;exitDy=0;entryX=0;entryY=0.5;entryDx=0;entryDy=0;" edge="1" parent="1" source="tkY_Gy2M9DlLA2ceVLeB-27" target="tkY_Gy2M9DlLA2ceVLeB-35">
          <mxGeometry relative="1" as="geometry">
            <mxPoint x="610" y="-260" as="sourcePoint" />
            <mxPoint x="770" y="-260" as="targetPoint" />
          </mxGeometry>
        </mxCell>
        <mxCell id="tkY_Gy2M9DlLA2ceVLeB-47" value="Skill_Mastery" style="whiteSpace=wrap;html=1;align=center;" vertex="1" parent="1">
          <mxGeometry x="450" y="-140" width="100" height="40" as="geometry" />
        </mxCell>
        <mxCell id="tkY_Gy2M9DlLA2ceVLeB-48" value="Collaborative" style="whiteSpace=wrap;html=1;align=center;" vertex="1" parent="1">
          <mxGeometry x="640" y="-140" width="100" height="40" as="geometry" />
        </mxCell>
        <mxCell id="tkY_Gy2M9DlLA2ceVLeB-49" value="D" style="ellipse;whiteSpace=wrap;html=1;aspect=fixed;" vertex="1" parent="1">
          <mxGeometry x="580" y="-240" width="20" height="20" as="geometry" />
        </mxCell>
        <mxCell id="tkY_Gy2M9DlLA2ceVLeB-50" value="" style="endArrow=none;html=1;rounded=0;fontSize=12;startSize=8;endSize=8;curved=1;exitX=0.5;exitY=1;exitDx=0;exitDy=0;entryX=0.5;entryY=0;entryDx=0;entryDy=0;" edge="1" parent="1" source="tkY_Gy2M9DlLA2ceVLeB-27" target="tkY_Gy2M9DlLA2ceVLeB-49">
          <mxGeometry relative="1" as="geometry">
            <mxPoint x="560" y="-160" as="sourcePoint" />
            <mxPoint x="720" y="-160" as="targetPoint" />
          </mxGeometry>
        </mxCell>
        <mxCell id="tkY_Gy2M9DlLA2ceVLeB-51" value="" style="endArrow=none;html=1;rounded=0;fontSize=12;startSize=8;endSize=8;curved=1;exitX=1;exitY=1;exitDx=0;exitDy=0;entryX=0.5;entryY=0;entryDx=0;entryDy=0;" edge="1" parent="1" source="tkY_Gy2M9DlLA2ceVLeB-49" target="tkY_Gy2M9DlLA2ceVLeB-48">
          <mxGeometry relative="1" as="geometry">
            <mxPoint x="600" y="-190" as="sourcePoint" />
            <mxPoint x="760" y="-190" as="targetPoint" />
          </mxGeometry>
        </mxCell>
        <mxCell id="tkY_Gy2M9DlLA2ceVLeB-52" value="" style="endArrow=none;html=1;rounded=0;fontSize=12;startSize=8;endSize=8;curved=1;entryX=0;entryY=1;entryDx=0;entryDy=0;exitX=0.5;exitY=0;exitDx=0;exitDy=0;" edge="1" parent="1" source="tkY_Gy2M9DlLA2ceVLeB-47" target="tkY_Gy2M9DlLA2ceVLeB-49">
          <mxGeometry relative="1" as="geometry">
            <mxPoint x="395" y="-180" as="sourcePoint" />
            <mxPoint x="555" y="-180" as="targetPoint" />
          </mxGeometry>
        </mxCell>
        <mxCell id="tkY_Gy2M9DlLA2ceVLeB-53" value="participates in / wins" style="shape=rhombus;perimeter=rhombusPerimeter;whiteSpace=wrap;html=1;align=center;" vertex="1" parent="1">
          <mxGeometry x="190" y="-150" width="140" height="70" as="geometry" />
        </mxCell>
        <mxCell id="tkY_Gy2M9DlLA2ceVLeB-54" value="" style="edgeStyle=entityRelationEdgeStyle;fontSize=12;html=1;endArrow=ERoneToMany;rounded=0;startSize=8;endSize=8;curved=1;entryX=0;entryY=0.75;entryDx=0;entryDy=0;exitX=1;exitY=0.5;exitDx=0;exitDy=0;" edge="1" parent="1" source="tkY_Gy2M9DlLA2ceVLeB-53" target="tkY_Gy2M9DlLA2ceVLeB-27">
          <mxGeometry width="100" height="100" relative="1" as="geometry">
            <mxPoint x="250" y="-30" as="sourcePoint" />
            <mxPoint x="350" y="-130" as="targetPoint" />
          </mxGeometry>
        </mxCell>
        <mxCell id="tkY_Gy2M9DlLA2ceVLeB-55" value="" style="edgeStyle=entityRelationEdgeStyle;fontSize=12;html=1;endArrow=ERoneToMany;rounded=0;startSize=8;endSize=8;curved=1;entryX=1;entryY=0.75;entryDx=0;entryDy=0;exitX=0;exitY=0.5;exitDx=0;exitDy=0;" edge="1" parent="1" source="tkY_Gy2M9DlLA2ceVLeB-53" target="tkY_Gy2M9DlLA2ceVLeB-28">
          <mxGeometry width="100" height="100" relative="1" as="geometry">
            <mxPoint x="250" y="-30" as="sourcePoint" />
            <mxPoint x="350" y="-130" as="targetPoint" />
          </mxGeometry>
        </mxCell>
        <mxCell id="tkY_Gy2M9DlLA2ceVLeB-56" value="" style="edgeStyle=entityRelationEdgeStyle;fontSize=12;html=1;endArrow=ERoneToMany;rounded=0;startSize=8;endSize=8;curved=1;entryX=0;entryY=0.143;entryDx=0;entryDy=0;exitX=0.5;exitY=1;exitDx=0;exitDy=0;entryPerimeter=0;" edge="1" parent="1" source="tkY_Gy2M9DlLA2ceVLeB-53" target="D1ktm93ZQyzYeGJnjbzK-1">
          <mxGeometry width="100" height="100" relative="1" as="geometry">
            <mxPoint x="250" y="240" as="sourcePoint" />
            <mxPoint x="350" y="140" as="targetPoint" />
            <Array as="points">
              <mxPoint x="250" y="190" />
              <mxPoint x="250" y="180" />
            </Array>
          </mxGeometry>
        </mxCell>
        <mxCell id="tkY_Gy2M9DlLA2ceVLeB-57" value="deadline" style="ellipse;whiteSpace=wrap;html=1;align=center;" vertex="1" parent="1">
          <mxGeometry x="817.5" y="-220" width="100" height="40" as="geometry" />
        </mxCell>
        <mxCell id="tkY_Gy2M9DlLA2ceVLeB-58" value="Max_num_participants" style="ellipse;whiteSpace=wrap;html=1;align=center;" vertex="1" parent="1">
          <mxGeometry x="820.5" y="-330" width="137.5" height="55" as="geometry" />
        </mxCell>
        <mxCell id="tkY_Gy2M9DlLA2ceVLeB-59" value="Skills" style="ellipse;shape=doubleEllipse;margin=3;whiteSpace=wrap;html=1;align=center;" vertex="1" parent="1">
          <mxGeometry x="450" y="-50" width="100" height="40" as="geometry" />
        </mxCell>
        <mxCell id="tkY_Gy2M9DlLA2ceVLeB-60" value="" style="endArrow=none;html=1;rounded=0;fontSize=12;startSize=8;endSize=8;curved=1;exitX=0.5;exitY=1;exitDx=0;exitDy=0;entryX=0.5;entryY=0;entryDx=0;entryDy=0;" edge="1" parent="1" source="tkY_Gy2M9DlLA2ceVLeB-47" target="tkY_Gy2M9DlLA2ceVLeB-59">
          <mxGeometry relative="1" as="geometry">
            <mxPoint x="520" y="-50" as="sourcePoint" />
            <mxPoint x="680" y="-50" as="targetPoint" />
          </mxGeometry>
        </mxCell>
        <mxCell id="tkY_Gy2M9DlLA2ceVLeB-61" value="" style="endArrow=none;html=1;rounded=0;fontSize=12;startSize=8;endSize=8;curved=1;exitX=1;exitY=0.25;exitDx=0;exitDy=0;entryX=0;entryY=1;entryDx=0;entryDy=0;" edge="1" parent="1" source="tkY_Gy2M9DlLA2ceVLeB-48" target="tkY_Gy2M9DlLA2ceVLeB-57">
          <mxGeometry relative="1" as="geometry">
            <mxPoint x="757.5" y="-140.69" as="sourcePoint" />
            <mxPoint x="917.5" y="-140.69" as="targetPoint" />
          </mxGeometry>
        </mxCell>
        <mxCell id="tkY_Gy2M9DlLA2ceVLeB-62" value="" style="endArrow=none;html=1;rounded=0;fontSize=12;startSize=8;endSize=8;curved=1;exitX=0.75;exitY=0;exitDx=0;exitDy=0;entryX=0.5;entryY=1;entryDx=0;entryDy=0;" edge="1" parent="1" source="tkY_Gy2M9DlLA2ceVLeB-48" target="tkY_Gy2M9DlLA2ceVLeB-58">
          <mxGeometry relative="1" as="geometry">
            <mxPoint x="710" y="-20" as="sourcePoint" />
            <mxPoint x="870" y="-20" as="targetPoint" />
          </mxGeometry>
        </mxCell>
        <mxCell id="tkY_Gy2M9DlLA2ceVLeB-63" value="" style="edgeStyle=entityRelationEdgeStyle;fontSize=12;html=1;endArrow=ERone;endFill=1;rounded=0;startSize=8;endSize=8;curved=1;entryX=1;entryY=0.25;entryDx=0;entryDy=0;" edge="1" parent="1" source="tkY_Gy2M9DlLA2ceVLeB-16" target="D1ktm93ZQyzYeGJnjbzK-80">
          <mxGeometry width="100" height="100" relative="1" as="geometry">
            <mxPoint x="1090" y="910" as="sourcePoint" />
            <mxPoint x="1210" y="950" as="targetPoint" />
            <Array as="points">
              <mxPoint x="1310" y="840" />
            </Array>
          </mxGeometry>
        </mxCell>
        <mxCell id="tkY_Gy2M9DlLA2ceVLeB-64" value="Emotional_feedback" style="whiteSpace=wrap;html=1;align=center;" vertex="1" parent="1">
          <mxGeometry x="1580" y="470" width="125" height="50" as="geometry" />
        </mxCell>
        <mxCell id="tkY_Gy2M9DlLA2ceVLeB-66" value="Timestamp" style="ellipse;whiteSpace=wrap;html=1;align=center;" vertex="1" parent="1">
          <mxGeometry x="1510" y="375" width="100" height="40" as="geometry" />
        </mxCell>
        <mxCell id="tkY_Gy2M9DlLA2ceVLeB-67" value="Emotional_state" style="ellipse;whiteSpace=wrap;html=1;align=center;" vertex="1" parent="1">
          <mxGeometry x="1670" y="370" width="100" height="40" as="geometry" />
        </mxCell>
        <mxCell id="tkY_Gy2M9DlLA2ceVLeB-68" value="" style="endArrow=none;html=1;rounded=0;fontSize=12;startSize=8;endSize=8;curved=1;exitX=0.5;exitY=1;exitDx=0;exitDy=0;entryX=0.5;entryY=0;entryDx=0;entryDy=0;" edge="1" parent="1" source="tkY_Gy2M9DlLA2ceVLeB-217" target="tkY_Gy2M9DlLA2ceVLeB-64">
          <mxGeometry relative="1" as="geometry">
            <mxPoint x="1642.5" y="370" as="sourcePoint" />
            <mxPoint x="1760" y="428.82" as="targetPoint" />
          </mxGeometry>
        </mxCell>
        <mxCell id="tkY_Gy2M9DlLA2ceVLeB-69" value="" style="endArrow=none;html=1;rounded=0;fontSize=12;startSize=8;endSize=8;curved=1;exitX=0.5;exitY=1;exitDx=0;exitDy=0;entryX=0.25;entryY=0;entryDx=0;entryDy=0;" edge="1" parent="1" source="tkY_Gy2M9DlLA2ceVLeB-66" target="tkY_Gy2M9DlLA2ceVLeB-64">
          <mxGeometry relative="1" as="geometry">
            <mxPoint x="1560" y="415" as="sourcePoint" />
            <mxPoint x="1692.5" y="430" as="targetPoint" />
          </mxGeometry>
        </mxCell>
        <mxCell id="tkY_Gy2M9DlLA2ceVLeB-70" value="" style="endArrow=none;html=1;rounded=0;fontSize=12;startSize=8;endSize=8;curved=1;exitX=0.75;exitY=0;exitDx=0;exitDy=0;entryX=0.5;entryY=1;entryDx=0;entryDy=0;" edge="1" parent="1" source="tkY_Gy2M9DlLA2ceVLeB-64" target="tkY_Gy2M9DlLA2ceVLeB-67">
          <mxGeometry relative="1" as="geometry">
            <mxPoint x="1730" y="465" as="sourcePoint" />
            <mxPoint x="1890" y="465" as="targetPoint" />
          </mxGeometry>
        </mxCell>
        <mxCell id="tkY_Gy2M9DlLA2ceVLeB-71" value="submits" style="shape=rhombus;perimeter=rhombusPerimeter;whiteSpace=wrap;html=1;align=center;" vertex="1" parent="1">
          <mxGeometry x="1066.25" y="370" width="120" height="60" as="geometry" />
        </mxCell>
        <mxCell id="tkY_Gy2M9DlLA2ceVLeB-72" value="" style="edgeStyle=entityRelationEdgeStyle;fontSize=12;html=1;endArrow=ERone;endFill=1;rounded=0;startSize=8;endSize=8;curved=1;entryX=1;entryY=0.5;entryDx=0;entryDy=0;exitX=0;exitY=0.5;exitDx=0;exitDy=0;" edge="1" parent="1" source="tkY_Gy2M9DlLA2ceVLeB-71" target="D1ktm93ZQyzYeGJnjbzK-1">
          <mxGeometry width="100" height="100" relative="1" as="geometry">
            <mxPoint x="680" y="485" as="sourcePoint" />
            <mxPoint x="780" y="385" as="targetPoint" />
          </mxGeometry>
        </mxCell>
        <mxCell id="tkY_Gy2M9DlLA2ceVLeB-73" value="" style="edgeStyle=entityRelationEdgeStyle;fontSize=12;html=1;endArrow=ERoneToMany;rounded=0;startSize=8;endSize=8;curved=1;entryX=0;entryY=0.25;entryDx=0;entryDy=0;" edge="1" parent="1" source="tkY_Gy2M9DlLA2ceVLeB-71" target="tkY_Gy2M9DlLA2ceVLeB-64">
          <mxGeometry width="100" height="100" relative="1" as="geometry">
            <mxPoint x="1325" y="510" as="sourcePoint" />
            <mxPoint x="1425" y="410" as="targetPoint" />
          </mxGeometry>
        </mxCell>
        <mxCell id="tkY_Gy2M9DlLA2ceVLeB-74" value="feels" style="shape=rhombus;perimeter=rhombusPerimeter;whiteSpace=wrap;html=1;align=center;" vertex="1" parent="1">
          <mxGeometry x="1366.25" y="590" width="120" height="60" as="geometry" />
        </mxCell>
        <mxCell id="tkY_Gy2M9DlLA2ceVLeB-75" value="" style="edgeStyle=entityRelationEdgeStyle;fontSize=12;html=1;endArrow=ERoneToMany;rounded=0;startSize=8;endSize=8;curved=1;exitX=0.5;exitY=0;exitDx=0;exitDy=0;entryX=0;entryY=0.595;entryDx=0;entryDy=0;entryPerimeter=0;" edge="1" parent="1" source="tkY_Gy2M9DlLA2ceVLeB-74" target="tkY_Gy2M9DlLA2ceVLeB-64">
          <mxGeometry width="100" height="100" relative="1" as="geometry">
            <mxPoint x="1470" y="610" as="sourcePoint" />
            <mxPoint x="1600" y="420" as="targetPoint" />
          </mxGeometry>
        </mxCell>
        <mxCell id="tkY_Gy2M9DlLA2ceVLeB-76" value="" style="edgeStyle=entityRelationEdgeStyle;fontSize=12;html=1;endArrow=ERone;endFill=1;rounded=0;startSize=8;endSize=8;curved=1;entryX=1;entryY=0.75;entryDx=0;entryDy=0;exitX=0.5;exitY=1;exitDx=0;exitDy=0;" edge="1" parent="1" source="tkY_Gy2M9DlLA2ceVLeB-74" target="D1ktm93ZQyzYeGJnjbzK-80">
          <mxGeometry width="100" height="100" relative="1" as="geometry">
            <mxPoint x="1450" y="870" as="sourcePoint" />
            <mxPoint x="1550" y="770" as="targetPoint" />
          </mxGeometry>
        </mxCell>
        <mxCell id="tkY_Gy2M9DlLA2ceVLeB-77" value="Instructor" style="whiteSpace=wrap;html=1;align=center;" vertex="1" parent="1">
          <mxGeometry x="890" y="1760" width="100" height="40" as="geometry" />
        </mxCell>
        <mxCell id="tkY_Gy2M9DlLA2ceVLeB-78" value="InstructorID" style="ellipse;whiteSpace=wrap;html=1;align=center;fontStyle=4;" vertex="1" parent="1">
          <mxGeometry x="880" y="1630" width="100" height="40" as="geometry" />
        </mxCell>
        <mxCell id="tkY_Gy2M9DlLA2ceVLeB-79" value="name" style="ellipse;whiteSpace=wrap;html=1;align=center;" vertex="1" parent="1">
          <mxGeometry x="770" y="1660" width="100" height="40" as="geometry" />
        </mxCell>
        <mxCell id="tkY_Gy2M9DlLA2ceVLeB-80" value="email" style="ellipse;whiteSpace=wrap;html=1;align=center;" vertex="1" parent="1">
          <mxGeometry x="975" y="1590" width="100" height="40" as="geometry" />
        </mxCell>
        <mxCell id="tkY_Gy2M9DlLA2ceVLeB-81" value="latest_qualification" style="ellipse;whiteSpace=wrap;html=1;align=center;" vertex="1" parent="1">
          <mxGeometry x="790" y="1850" width="125" height="50" as="geometry" />
        </mxCell>
        <mxCell id="tkY_Gy2M9DlLA2ceVLeB-82" value="expertise_area" style="ellipse;whiteSpace=wrap;html=1;align=center;" vertex="1" parent="1">
          <mxGeometry x="960" y="1860" width="100" height="40" as="geometry" />
        </mxCell>
        <mxCell id="tkY_Gy2M9DlLA2ceVLeB-83" value="" style="endArrow=none;html=1;rounded=0;fontSize=12;startSize=8;endSize=8;curved=1;exitX=0.5;exitY=1;exitDx=0;exitDy=0;entryX=0.25;entryY=0;entryDx=0;entryDy=0;" edge="1" parent="1" source="tkY_Gy2M9DlLA2ceVLeB-79" target="tkY_Gy2M9DlLA2ceVLeB-77">
          <mxGeometry relative="1" as="geometry">
            <mxPoint x="860" y="1724.2" as="sourcePoint" />
            <mxPoint x="1020" y="1724.2" as="targetPoint" />
          </mxGeometry>
        </mxCell>
        <mxCell id="tkY_Gy2M9DlLA2ceVLeB-84" value="" style="endArrow=none;html=1;rounded=0;fontSize=12;startSize=8;endSize=8;curved=1;exitX=0.5;exitY=1;exitDx=0;exitDy=0;" edge="1" parent="1" source="tkY_Gy2M9DlLA2ceVLeB-78" target="tkY_Gy2M9DlLA2ceVLeB-77">
          <mxGeometry relative="1" as="geometry">
            <mxPoint x="910" y="1724.2" as="sourcePoint" />
            <mxPoint x="1070" y="1724.2" as="targetPoint" />
          </mxGeometry>
        </mxCell>
        <mxCell id="tkY_Gy2M9DlLA2ceVLeB-85" value="" style="endArrow=none;html=1;rounded=0;fontSize=12;startSize=8;endSize=8;curved=1;exitX=0.75;exitY=0;exitDx=0;exitDy=0;entryX=0.5;entryY=1;entryDx=0;entryDy=0;" edge="1" parent="1" source="tkY_Gy2M9DlLA2ceVLeB-77" target="tkY_Gy2M9DlLA2ceVLeB-80">
          <mxGeometry relative="1" as="geometry">
            <mxPoint x="990" y="1734.6" as="sourcePoint" />
            <mxPoint x="1150" y="1734.6" as="targetPoint" />
          </mxGeometry>
        </mxCell>
        <mxCell id="tkY_Gy2M9DlLA2ceVLeB-86" value="" style="endArrow=none;html=1;rounded=0;fontSize=12;startSize=8;endSize=8;curved=1;entryX=0.25;entryY=1;entryDx=0;entryDy=0;exitX=0.5;exitY=0;exitDx=0;exitDy=0;" edge="1" parent="1" source="tkY_Gy2M9DlLA2ceVLeB-81" target="tkY_Gy2M9DlLA2ceVLeB-77">
          <mxGeometry relative="1" as="geometry">
            <mxPoint x="760" y="1815" as="sourcePoint" />
            <mxPoint x="920" y="1815" as="targetPoint" />
          </mxGeometry>
        </mxCell>
        <mxCell id="tkY_Gy2M9DlLA2ceVLeB-87" value="" style="endArrow=none;html=1;rounded=0;fontSize=12;startSize=8;endSize=8;curved=1;exitX=0.75;exitY=1;exitDx=0;exitDy=0;entryX=0.5;entryY=0;entryDx=0;entryDy=0;" edge="1" parent="1" source="tkY_Gy2M9DlLA2ceVLeB-77" target="tkY_Gy2M9DlLA2ceVLeB-82">
          <mxGeometry relative="1" as="geometry">
            <mxPoint x="990" y="1804.6" as="sourcePoint" />
            <mxPoint x="1150" y="1804.6" as="targetPoint" />
          </mxGeometry>
        </mxCell>
        <mxCell id="tkY_Gy2M9DlLA2ceVLeB-89" value="teaches" style="shape=rhombus;perimeter=rhombusPerimeter;whiteSpace=wrap;html=1;align=center;" vertex="1" parent="1">
          <mxGeometry x="-130" y="1370" width="120" height="60" as="geometry" />
        </mxCell>
        <mxCell id="tkY_Gy2M9DlLA2ceVLeB-90" value="" style="edgeStyle=entityRelationEdgeStyle;fontSize=12;html=1;endArrow=ERoneToMany;rounded=0;startSize=8;endSize=8;curved=1;entryX=0;entryY=0.5;entryDx=0;entryDy=0;exitX=0.486;exitY=0.993;exitDx=0;exitDy=0;exitPerimeter=0;" edge="1" parent="1" source="tkY_Gy2M9DlLA2ceVLeB-89" target="tkY_Gy2M9DlLA2ceVLeB-77">
          <mxGeometry width="100" height="100" relative="1" as="geometry">
            <mxPoint x="155" y="1205" as="sourcePoint" />
            <mxPoint x="255" y="1105" as="targetPoint" />
          </mxGeometry>
        </mxCell>
        <mxCell id="tkY_Gy2M9DlLA2ceVLeB-91" value="" style="edgeStyle=entityRelationEdgeStyle;fontSize=12;html=1;endArrow=ERoneToMany;rounded=0;startSize=8;endSize=8;curved=1;entryX=0;entryY=0.75;entryDx=0;entryDy=0;exitX=0.5;exitY=0;exitDx=0;exitDy=0;" edge="1" parent="1" source="tkY_Gy2M9DlLA2ceVLeB-89" target="D1ktm93ZQyzYeGJnjbzK-45">
          <mxGeometry width="100" height="100" relative="1" as="geometry">
            <mxPoint x="380" y="1110" as="sourcePoint" />
            <mxPoint x="270" y="850" as="targetPoint" />
          </mxGeometry>
        </mxCell>
        <mxCell id="tkY_Gy2M9DlLA2ceVLeB-92" value="recieves" style="shape=rhombus;perimeter=rhombusPerimeter;whiteSpace=wrap;html=1;align=center;" vertex="1" parent="1">
          <mxGeometry x="1490" y="1080" width="120" height="60" as="geometry" />
        </mxCell>
        <mxCell id="tkY_Gy2M9DlLA2ceVLeB-93" value="" style="edgeStyle=entityRelationEdgeStyle;fontSize=12;html=1;endArrow=ERoneToMany;rounded=0;startSize=8;endSize=8;curved=1;exitX=0.5;exitY=0;exitDx=0;exitDy=0;entryX=0;entryY=1;entryDx=0;entryDy=0;" edge="1" parent="1" source="tkY_Gy2M9DlLA2ceVLeB-92" target="tkY_Gy2M9DlLA2ceVLeB-64">
          <mxGeometry width="100" height="100" relative="1" as="geometry">
            <mxPoint x="1980" y="1190" as="sourcePoint" />
            <mxPoint x="1670" y="450" as="targetPoint" />
          </mxGeometry>
        </mxCell>
        <mxCell id="tkY_Gy2M9DlLA2ceVLeB-94" value="" style="edgeStyle=entityRelationEdgeStyle;fontSize=12;html=1;endArrow=ERoneToMany;rounded=0;startSize=8;endSize=8;curved=1;exitX=0.5;exitY=1;exitDx=0;exitDy=0;entryX=1;entryY=0.25;entryDx=0;entryDy=0;" edge="1" parent="1" source="tkY_Gy2M9DlLA2ceVLeB-92" target="tkY_Gy2M9DlLA2ceVLeB-77">
          <mxGeometry width="100" height="100" relative="1" as="geometry">
            <mxPoint x="1910" y="1100" as="sourcePoint" />
            <mxPoint x="-250" y="1340" as="targetPoint" />
          </mxGeometry>
        </mxCell>
        <mxCell id="tkY_Gy2M9DlLA2ceVLeB-99" value="" style="edgeStyle=entityRelationEdgeStyle;fontSize=12;html=1;endArrow=ERoneToMany;rounded=0;startSize=8;endSize=8;curved=1;entryX=1;entryY=0.75;entryDx=0;entryDy=0;exitX=0.5;exitY=1;exitDx=0;exitDy=0;" edge="1" parent="1" source="tkY_Gy2M9DlLA2ceVLeB-100" target="tkY_Gy2M9DlLA2ceVLeB-77">
          <mxGeometry width="100" height="100" relative="1" as="geometry">
            <mxPoint x="910" y="1720.6451612903227" as="sourcePoint" />
            <mxPoint x="600" y="1310" as="targetPoint" />
          </mxGeometry>
        </mxCell>
        <mxCell id="tkY_Gy2M9DlLA2ceVLeB-100" value="reviews" style="shape=rhombus;perimeter=rhombusPerimeter;whiteSpace=wrap;html=1;align=center;" vertex="1" parent="1">
          <mxGeometry x="1775" y="1210" width="120" height="60" as="geometry" />
        </mxCell>
        <mxCell id="tkY_Gy2M9DlLA2ceVLeB-101" value="" style="edgeStyle=entityRelationEdgeStyle;fontSize=12;html=1;endArrow=ERoneToMany;rounded=0;startSize=8;endSize=8;curved=1;entryX=0;entryY=0.75;entryDx=0;entryDy=0;exitX=0.5;exitY=0;exitDx=0;exitDy=0;" edge="1" parent="1" source="tkY_Gy2M9DlLA2ceVLeB-100" target="D1ktm93ZQyzYeGJnjbzK-136">
          <mxGeometry width="100" height="100" relative="1" as="geometry">
            <mxPoint x="1880" y="710" as="sourcePoint" />
            <mxPoint x="2090" y="510" as="targetPoint" />
          </mxGeometry>
        </mxCell>
        <mxCell id="tkY_Gy2M9DlLA2ceVLeB-102" value="SkillProgression" style="whiteSpace=wrap;html=1;align=center;" vertex="1" parent="1">
          <mxGeometry x="-360" y="235" width="100" height="40" as="geometry" />
        </mxCell>
        <mxCell id="tkY_Gy2M9DlLA2ceVLeB-103" value="ID" style="ellipse;whiteSpace=wrap;html=1;align=center;fontStyle=4;" vertex="1" parent="1">
          <mxGeometry x="-300" y="145" width="100" height="40" as="geometry" />
        </mxCell>
        <mxCell id="tkY_Gy2M9DlLA2ceVLeB-105" value="Profeciency_level" style="ellipse;whiteSpace=wrap;html=1;align=center;" vertex="1" parent="1">
          <mxGeometry x="-410" y="150" width="100" height="40" as="geometry" />
        </mxCell>
        <mxCell id="tkY_Gy2M9DlLA2ceVLeB-106" value="Timestamp" style="ellipse;whiteSpace=wrap;html=1;align=center;" vertex="1" parent="1">
          <mxGeometry x="-540" y="230" width="100" height="40" as="geometry" />
        </mxCell>
        <mxCell id="tkY_Gy2M9DlLA2ceVLeB-107" value="" style="endArrow=none;html=1;rounded=0;fontSize=12;startSize=8;endSize=8;curved=1;exitX=0.5;exitY=1;exitDx=0;exitDy=0;entryX=0.5;entryY=0;entryDx=0;entryDy=0;" edge="1" parent="1" source="tkY_Gy2M9DlLA2ceVLeB-103" target="tkY_Gy2M9DlLA2ceVLeB-102">
          <mxGeometry relative="1" as="geometry">
            <mxPoint x="-425" y="240" as="sourcePoint" />
            <mxPoint x="-265" y="240" as="targetPoint" />
          </mxGeometry>
        </mxCell>
        <mxCell id="tkY_Gy2M9DlLA2ceVLeB-108" value="" style="endArrow=none;html=1;rounded=0;fontSize=12;startSize=8;endSize=8;curved=1;exitX=0.5;exitY=1;exitDx=0;exitDy=0;entryX=0.25;entryY=0;entryDx=0;entryDy=0;" edge="1" parent="1" source="tkY_Gy2M9DlLA2ceVLeB-105" target="tkY_Gy2M9DlLA2ceVLeB-102">
          <mxGeometry relative="1" as="geometry">
            <mxPoint x="-325" y="249.47" as="sourcePoint" />
            <mxPoint x="-165" y="249.47" as="targetPoint" />
          </mxGeometry>
        </mxCell>
        <mxCell id="tkY_Gy2M9DlLA2ceVLeB-110" value="" style="endArrow=none;html=1;rounded=0;fontSize=12;startSize=8;endSize=8;curved=1;exitX=1;exitY=0.5;exitDx=0;exitDy=0;entryX=0;entryY=0.5;entryDx=0;entryDy=0;" edge="1" parent="1" source="tkY_Gy2M9DlLA2ceVLeB-106" target="tkY_Gy2M9DlLA2ceVLeB-102">
          <mxGeometry relative="1" as="geometry">
            <mxPoint x="-360" y="360" as="sourcePoint" />
            <mxPoint x="-200" y="360" as="targetPoint" />
          </mxGeometry>
        </mxCell>
        <mxCell id="tkY_Gy2M9DlLA2ceVLeB-111" value="Progress" style="shape=rhombus;perimeter=rhombusPerimeter;whiteSpace=wrap;html=1;align=center;" vertex="1" parent="1">
          <mxGeometry x="-80" y="225" width="120" height="60" as="geometry" />
        </mxCell>
        <mxCell id="tkY_Gy2M9DlLA2ceVLeB-112" value="" style="edgeStyle=entityRelationEdgeStyle;fontSize=12;html=1;endArrow=ERoneToMany;rounded=0;startSize=8;endSize=8;curved=1;entryX=1;entryY=0.5;entryDx=0;entryDy=0;exitX=0;exitY=0.5;exitDx=0;exitDy=0;" edge="1" parent="1" source="tkY_Gy2M9DlLA2ceVLeB-111" target="tkY_Gy2M9DlLA2ceVLeB-102">
          <mxGeometry width="100" height="100" relative="1" as="geometry">
            <mxPoint x="-200" y="520" as="sourcePoint" />
            <mxPoint x="-100" y="420" as="targetPoint" />
          </mxGeometry>
        </mxCell>
        <mxCell id="tkY_Gy2M9DlLA2ceVLeB-113" value="" style="edgeStyle=entityRelationEdgeStyle;fontSize=12;html=1;endArrow=ERone;endFill=1;rounded=0;startSize=8;endSize=8;curved=1;entryX=0;entryY=0.5;entryDx=0;entryDy=0;exitX=1;exitY=0.5;exitDx=0;exitDy=0;" edge="1" parent="1" source="tkY_Gy2M9DlLA2ceVLeB-111" target="D1ktm93ZQyzYeGJnjbzK-1">
          <mxGeometry width="100" height="100" relative="1" as="geometry">
            <mxPoint x="55" y="430" as="sourcePoint" />
            <mxPoint x="155" y="330" as="targetPoint" />
          </mxGeometry>
        </mxCell>
        <mxCell id="tkY_Gy2M9DlLA2ceVLeB-114" value="Assesments" style="whiteSpace=wrap;html=1;align=center;" vertex="1" parent="1">
          <mxGeometry x="325" y="1260" width="100" height="40" as="geometry" />
        </mxCell>
        <mxCell id="tkY_Gy2M9DlLA2ceVLeB-115" value="ContentLibrary" style="whiteSpace=wrap;html=1;align=center;" vertex="1" parent="1">
          <mxGeometry x="719.25" y="1460" width="100" height="40" as="geometry" />
        </mxCell>
        <mxCell id="tkY_Gy2M9DlLA2ceVLeB-116" value="Type" style="ellipse;whiteSpace=wrap;html=1;align=center;" vertex="1" parent="1">
          <mxGeometry x="330" y="1120" width="100" height="40" as="geometry" />
        </mxCell>
        <mxCell id="tkY_Gy2M9DlLA2ceVLeB-117" value="ID" style="ellipse;whiteSpace=wrap;html=1;align=center;fontStyle=4;" vertex="1" parent="1">
          <mxGeometry x="410" y="1170" width="100" height="40" as="geometry" />
        </mxCell>
        <mxCell id="tkY_Gy2M9DlLA2ceVLeB-118" value="Total_marks" style="ellipse;whiteSpace=wrap;html=1;align=center;" vertex="1" parent="1">
          <mxGeometry x="230" y="1160" width="100" height="40" as="geometry" />
        </mxCell>
        <mxCell id="tkY_Gy2M9DlLA2ceVLeB-119" value="Passing_marks" style="ellipse;whiteSpace=wrap;html=1;align=center;" vertex="1" parent="1">
          <mxGeometry x="160" y="1250" width="100" height="40" as="geometry" />
        </mxCell>
        <mxCell id="tkY_Gy2M9DlLA2ceVLeB-120" value="Criteria" style="ellipse;whiteSpace=wrap;html=1;align=center;" vertex="1" parent="1">
          <mxGeometry x="160" y="1340" width="100" height="40" as="geometry" />
        </mxCell>
        <mxCell id="tkY_Gy2M9DlLA2ceVLeB-121" value="weightage" style="ellipse;whiteSpace=wrap;html=1;align=center;" vertex="1" parent="1">
          <mxGeometry x="245" y="1390" width="100" height="40" as="geometry" />
        </mxCell>
        <mxCell id="tkY_Gy2M9DlLA2ceVLeB-122" value="Description" style="ellipse;whiteSpace=wrap;html=1;align=center;" vertex="1" parent="1">
          <mxGeometry x="330" y="1350" width="100" height="40" as="geometry" />
        </mxCell>
        <mxCell id="tkY_Gy2M9DlLA2ceVLeB-123" value="Title" style="ellipse;whiteSpace=wrap;html=1;align=center;" vertex="1" parent="1">
          <mxGeometry x="430" y="1380" width="100" height="40" as="geometry" />
        </mxCell>
        <mxCell id="tkY_Gy2M9DlLA2ceVLeB-124" value="" style="endArrow=none;html=1;rounded=0;fontSize=12;startSize=8;endSize=8;curved=1;exitX=0.5;exitY=1;exitDx=0;exitDy=0;entryX=0.75;entryY=0;entryDx=0;entryDy=0;" edge="1" parent="1" source="tkY_Gy2M9DlLA2ceVLeB-117" target="tkY_Gy2M9DlLA2ceVLeB-114">
          <mxGeometry relative="1" as="geometry">
            <mxPoint x="460" y="1250" as="sourcePoint" />
            <mxPoint x="620" y="1250" as="targetPoint" />
          </mxGeometry>
        </mxCell>
        <mxCell id="tkY_Gy2M9DlLA2ceVLeB-125" value="" style="endArrow=none;html=1;rounded=0;fontSize=12;startSize=8;endSize=8;curved=1;exitX=0.5;exitY=1;exitDx=0;exitDy=0;entryX=0.5;entryY=0;entryDx=0;entryDy=0;" edge="1" parent="1" source="tkY_Gy2M9DlLA2ceVLeB-116" target="tkY_Gy2M9DlLA2ceVLeB-114">
          <mxGeometry relative="1" as="geometry">
            <mxPoint x="310" y="1230" as="sourcePoint" />
            <mxPoint x="470" y="1230" as="targetPoint" />
          </mxGeometry>
        </mxCell>
        <mxCell id="tkY_Gy2M9DlLA2ceVLeB-126" value="" style="endArrow=none;html=1;rounded=0;fontSize=12;startSize=8;endSize=8;curved=1;exitX=1;exitY=1;exitDx=0;exitDy=0;entryX=0.25;entryY=0;entryDx=0;entryDy=0;" edge="1" parent="1" source="tkY_Gy2M9DlLA2ceVLeB-118" target="tkY_Gy2M9DlLA2ceVLeB-114">
          <mxGeometry relative="1" as="geometry">
            <mxPoint x="270" y="1249.43" as="sourcePoint" />
            <mxPoint x="430" y="1249.43" as="targetPoint" />
          </mxGeometry>
        </mxCell>
        <mxCell id="tkY_Gy2M9DlLA2ceVLeB-127" value="" style="endArrow=none;html=1;rounded=0;fontSize=12;startSize=8;endSize=8;curved=1;exitX=1;exitY=0.5;exitDx=0;exitDy=0;entryX=0;entryY=0.25;entryDx=0;entryDy=0;" edge="1" parent="1" source="tkY_Gy2M9DlLA2ceVLeB-119" target="tkY_Gy2M9DlLA2ceVLeB-114">
          <mxGeometry relative="1" as="geometry">
            <mxPoint x="300" y="1320" as="sourcePoint" />
            <mxPoint x="460" y="1320" as="targetPoint" />
          </mxGeometry>
        </mxCell>
        <mxCell id="tkY_Gy2M9DlLA2ceVLeB-128" value="" style="endArrow=none;html=1;rounded=0;fontSize=12;startSize=8;endSize=8;curved=1;exitX=1;exitY=0;exitDx=0;exitDy=0;entryX=0;entryY=0.5;entryDx=0;entryDy=0;" edge="1" parent="1" source="tkY_Gy2M9DlLA2ceVLeB-120" target="tkY_Gy2M9DlLA2ceVLeB-114">
          <mxGeometry relative="1" as="geometry">
            <mxPoint x="300" y="1350" as="sourcePoint" />
            <mxPoint x="460" y="1350" as="targetPoint" />
          </mxGeometry>
        </mxCell>
        <mxCell id="tkY_Gy2M9DlLA2ceVLeB-129" value="" style="endArrow=none;html=1;rounded=0;fontSize=12;startSize=8;endSize=8;curved=1;exitX=0.25;exitY=1;exitDx=0;exitDy=0;entryX=0.5;entryY=0;entryDx=0;entryDy=0;" edge="1" parent="1" source="tkY_Gy2M9DlLA2ceVLeB-114" target="tkY_Gy2M9DlLA2ceVLeB-121">
          <mxGeometry relative="1" as="geometry">
            <mxPoint x="330" y="1350" as="sourcePoint" />
            <mxPoint x="490" y="1350" as="targetPoint" />
          </mxGeometry>
        </mxCell>
        <mxCell id="tkY_Gy2M9DlLA2ceVLeB-130" value="" style="endArrow=none;html=1;rounded=0;fontSize=12;startSize=8;endSize=8;curved=1;exitX=0.5;exitY=1;exitDx=0;exitDy=0;entryX=0.5;entryY=0;entryDx=0;entryDy=0;" edge="1" parent="1" source="tkY_Gy2M9DlLA2ceVLeB-114" target="tkY_Gy2M9DlLA2ceVLeB-122">
          <mxGeometry relative="1" as="geometry">
            <mxPoint x="380" y="1350" as="sourcePoint" />
            <mxPoint x="540" y="1350" as="targetPoint" />
          </mxGeometry>
        </mxCell>
        <mxCell id="tkY_Gy2M9DlLA2ceVLeB-131" value="" style="endArrow=none;html=1;rounded=0;fontSize=12;startSize=8;endSize=8;curved=1;exitX=0.75;exitY=1;exitDx=0;exitDy=0;entryX=0;entryY=0;entryDx=0;entryDy=0;" edge="1" parent="1" source="tkY_Gy2M9DlLA2ceVLeB-114" target="tkY_Gy2M9DlLA2ceVLeB-123">
          <mxGeometry relative="1" as="geometry">
            <mxPoint x="440" y="1330" as="sourcePoint" />
            <mxPoint x="600" y="1330" as="targetPoint" />
          </mxGeometry>
        </mxCell>
        <mxCell id="tkY_Gy2M9DlLA2ceVLeB-132" value="has" style="shape=rhombus;perimeter=rhombusPerimeter;whiteSpace=wrap;html=1;align=center;" vertex="1" parent="1">
          <mxGeometry x="505" y="1120" width="120" height="60" as="geometry" />
        </mxCell>
        <mxCell id="tkY_Gy2M9DlLA2ceVLeB-133" value="" style="edgeStyle=entityRelationEdgeStyle;fontSize=12;html=1;endArrow=ERone;endFill=1;rounded=0;startSize=8;endSize=8;curved=1;entryX=0;entryY=0.5;entryDx=0;entryDy=0;exitX=1;exitY=0.5;exitDx=0;exitDy=0;" edge="1" parent="1" source="tkY_Gy2M9DlLA2ceVLeB-132" target="D1ktm93ZQyzYeGJnjbzK-63">
          <mxGeometry width="100" height="100" relative="1" as="geometry">
            <mxPoint x="470" y="1150" as="sourcePoint" />
            <mxPoint x="570" y="1050" as="targetPoint" />
          </mxGeometry>
        </mxCell>
        <mxCell id="tkY_Gy2M9DlLA2ceVLeB-134" value="" style="edgeStyle=entityRelationEdgeStyle;fontSize=12;html=1;endArrow=ERoneToMany;rounded=0;startSize=8;endSize=8;curved=1;entryX=1;entryY=0.5;entryDx=0;entryDy=0;exitX=0.5;exitY=1;exitDx=0;exitDy=0;" edge="1" parent="1" source="tkY_Gy2M9DlLA2ceVLeB-132" target="tkY_Gy2M9DlLA2ceVLeB-114">
          <mxGeometry width="100" height="100" relative="1" as="geometry">
            <mxPoint x="470" y="1150" as="sourcePoint" />
            <mxPoint x="570" y="1050" as="targetPoint" />
          </mxGeometry>
        </mxCell>
        <mxCell id="tkY_Gy2M9DlLA2ceVLeB-135" value="ID" style="ellipse;whiteSpace=wrap;html=1;align=center;fontStyle=4;" vertex="1" parent="1">
          <mxGeometry x="729.25" y="1580" width="100" height="40" as="geometry" />
        </mxCell>
        <mxCell id="tkY_Gy2M9DlLA2ceVLeB-136" value="Title" style="ellipse;whiteSpace=wrap;html=1;align=center;" vertex="1" parent="1">
          <mxGeometry x="839.25" y="1570" width="100" height="40" as="geometry" />
        </mxCell>
        <mxCell id="tkY_Gy2M9DlLA2ceVLeB-138" value="Type" style="ellipse;whiteSpace=wrap;html=1;align=center;" vertex="1" parent="1">
          <mxGeometry x="629.25" y="1360" width="100" height="40" as="geometry" />
        </mxCell>
        <mxCell id="tkY_Gy2M9DlLA2ceVLeB-139" value="Content_URL" style="ellipse;whiteSpace=wrap;html=1;align=center;" vertex="1" parent="1">
          <mxGeometry x="749.25" y="1350" width="100" height="40" as="geometry" />
        </mxCell>
        <mxCell id="tkY_Gy2M9DlLA2ceVLeB-140" value="metadata" style="ellipse;whiteSpace=wrap;html=1;align=center;" vertex="1" parent="1">
          <mxGeometry x="515.5" y="1460" width="100" height="40" as="geometry" />
        </mxCell>
        <mxCell id="tkY_Gy2M9DlLA2ceVLeB-141" value="description" style="ellipse;whiteSpace=wrap;html=1;align=center;" vertex="1" parent="1">
          <mxGeometry x="636" y="1550" width="100" height="40" as="geometry" />
        </mxCell>
        <mxCell id="tkY_Gy2M9DlLA2ceVLeB-142" value="contains" style="shape=rhombus;perimeter=rhombusPerimeter;whiteSpace=wrap;html=1;align=center;" vertex="1" parent="1">
          <mxGeometry x="1090" y="1280" width="120" height="60" as="geometry" />
        </mxCell>
        <mxCell id="tkY_Gy2M9DlLA2ceVLeB-143" value="" style="endArrow=none;html=1;rounded=0;fontSize=12;startSize=8;endSize=8;curved=1;exitX=0.5;exitY=1;exitDx=0;exitDy=0;entryX=0.75;entryY=0;entryDx=0;entryDy=0;" edge="1" parent="1" source="tkY_Gy2M9DlLA2ceVLeB-139" target="tkY_Gy2M9DlLA2ceVLeB-115">
          <mxGeometry relative="1" as="geometry">
            <mxPoint x="748.5" y="1399.58" as="sourcePoint" />
            <mxPoint x="908.5" y="1399.58" as="targetPoint" />
          </mxGeometry>
        </mxCell>
        <mxCell id="tkY_Gy2M9DlLA2ceVLeB-144" value="" style="endArrow=none;html=1;rounded=0;fontSize=12;startSize=8;endSize=8;curved=1;exitX=1;exitY=1;exitDx=0;exitDy=0;entryX=0.5;entryY=0;entryDx=0;entryDy=0;" edge="1" parent="1" source="tkY_Gy2M9DlLA2ceVLeB-138" target="tkY_Gy2M9DlLA2ceVLeB-115">
          <mxGeometry relative="1" as="geometry">
            <mxPoint x="641.75" y="1539.17" as="sourcePoint" />
            <mxPoint x="801.75" y="1539.17" as="targetPoint" />
          </mxGeometry>
        </mxCell>
        <mxCell id="tkY_Gy2M9DlLA2ceVLeB-145" value="" style="endArrow=none;html=1;rounded=0;fontSize=12;startSize=8;endSize=8;curved=1;exitX=0.5;exitY=0;exitDx=0;exitDy=0;entryX=0.25;entryY=1;entryDx=0;entryDy=0;" edge="1" parent="1" source="tkY_Gy2M9DlLA2ceVLeB-141" target="tkY_Gy2M9DlLA2ceVLeB-115">
          <mxGeometry relative="1" as="geometry">
            <mxPoint x="684.25" y="1539.17" as="sourcePoint" />
            <mxPoint x="844.25" y="1539.17" as="targetPoint" />
          </mxGeometry>
        </mxCell>
        <mxCell id="tkY_Gy2M9DlLA2ceVLeB-146" value="" style="endArrow=none;html=1;rounded=0;fontSize=12;startSize=8;endSize=8;curved=1;exitX=0.5;exitY=1;exitDx=0;exitDy=0;entryX=0.5;entryY=0;entryDx=0;entryDy=0;" edge="1" parent="1" source="tkY_Gy2M9DlLA2ceVLeB-115" target="tkY_Gy2M9DlLA2ceVLeB-135">
          <mxGeometry relative="1" as="geometry">
            <mxPoint x="784.25" y="1530" as="sourcePoint" />
            <mxPoint x="944.25" y="1530" as="targetPoint" />
          </mxGeometry>
        </mxCell>
        <mxCell id="tkY_Gy2M9DlLA2ceVLeB-147" value="" style="endArrow=none;html=1;rounded=0;fontSize=12;startSize=8;endSize=8;curved=1;exitX=0.75;exitY=1;exitDx=0;exitDy=0;entryX=0;entryY=0;entryDx=0;entryDy=0;" edge="1" parent="1" source="tkY_Gy2M9DlLA2ceVLeB-115" target="tkY_Gy2M9DlLA2ceVLeB-136">
          <mxGeometry relative="1" as="geometry">
            <mxPoint x="805.5" y="1519.58" as="sourcePoint" />
            <mxPoint x="965.5" y="1519.58" as="targetPoint" />
          </mxGeometry>
        </mxCell>
        <mxCell id="tkY_Gy2M9DlLA2ceVLeB-148" value="" style="endArrow=none;html=1;rounded=0;fontSize=12;startSize=8;endSize=8;curved=1;exitX=0;exitY=0.5;exitDx=0;exitDy=0;entryX=1;entryY=0.5;entryDx=0;entryDy=0;" edge="1" parent="1" source="tkY_Gy2M9DlLA2ceVLeB-115" target="tkY_Gy2M9DlLA2ceVLeB-140">
          <mxGeometry relative="1" as="geometry">
            <mxPoint x="836" y="1450" as="sourcePoint" />
            <mxPoint x="619.25" y="1480" as="targetPoint" />
          </mxGeometry>
        </mxCell>
        <mxCell id="tkY_Gy2M9DlLA2ceVLeB-149" value="" style="edgeStyle=entityRelationEdgeStyle;fontSize=12;html=1;endArrow=ERoneToMany;rounded=0;startSize=8;endSize=8;curved=1;entryX=1;entryY=0.5;entryDx=0;entryDy=0;exitX=0.5;exitY=1;exitDx=0;exitDy=0;" edge="1" parent="1" source="tkY_Gy2M9DlLA2ceVLeB-142" target="tkY_Gy2M9DlLA2ceVLeB-115">
          <mxGeometry width="100" height="100" relative="1" as="geometry">
            <mxPoint x="1050" y="1190" as="sourcePoint" />
            <mxPoint x="870" y="1260" as="targetPoint" />
          </mxGeometry>
        </mxCell>
        <mxCell id="tkY_Gy2M9DlLA2ceVLeB-152" value="has" style="shape=rhombus;perimeter=rhombusPerimeter;whiteSpace=wrap;html=1;align=center;" vertex="1" parent="1">
          <mxGeometry x="970" y="1090" width="80" height="40" as="geometry" />
        </mxCell>
        <mxCell id="tkY_Gy2M9DlLA2ceVLeB-154" value="Notification" style="whiteSpace=wrap;html=1;align=center;" vertex="1" parent="1">
          <mxGeometry x="-790" y="260" width="100" height="40" as="geometry" />
        </mxCell>
        <mxCell id="tkY_Gy2M9DlLA2ceVLeB-155" value="ID" style="ellipse;whiteSpace=wrap;html=1;align=center;fontStyle=4;" vertex="1" parent="1">
          <mxGeometry x="-790" y="160" width="100" height="40" as="geometry" />
        </mxCell>
        <mxCell id="tkY_Gy2M9DlLA2ceVLeB-156" value="Timestamp" style="ellipse;whiteSpace=wrap;html=1;align=center;" vertex="1" parent="1">
          <mxGeometry x="-900" y="200" width="100" height="40" as="geometry" />
        </mxCell>
        <mxCell id="tkY_Gy2M9DlLA2ceVLeB-157" value="Message" style="ellipse;whiteSpace=wrap;html=1;align=center;" vertex="1" parent="1">
          <mxGeometry x="-930" y="260" width="100" height="40" as="geometry" />
        </mxCell>
        <mxCell id="tkY_Gy2M9DlLA2ceVLeB-158" value="urgency_level" style="ellipse;whiteSpace=wrap;html=1;align=center;" vertex="1" parent="1">
          <mxGeometry x="-900" y="340" width="100" height="40" as="geometry" />
        </mxCell>
        <mxCell id="tkY_Gy2M9DlLA2ceVLeB-159" value="" style="endArrow=none;html=1;rounded=0;fontSize=12;startSize=8;endSize=8;curved=1;exitX=0.5;exitY=1;exitDx=0;exitDy=0;entryX=0.5;entryY=0;entryDx=0;entryDy=0;" edge="1" parent="1" source="tkY_Gy2M9DlLA2ceVLeB-155" target="tkY_Gy2M9DlLA2ceVLeB-154">
          <mxGeometry relative="1" as="geometry">
            <mxPoint x="-710" y="210" as="sourcePoint" />
            <mxPoint x="-550" y="210" as="targetPoint" />
          </mxGeometry>
        </mxCell>
        <mxCell id="tkY_Gy2M9DlLA2ceVLeB-160" value="" style="endArrow=none;html=1;rounded=0;fontSize=12;startSize=8;endSize=8;curved=1;exitX=1;exitY=0.5;exitDx=0;exitDy=0;entryX=0.25;entryY=0;entryDx=0;entryDy=0;" edge="1" parent="1" source="tkY_Gy2M9DlLA2ceVLeB-156" target="tkY_Gy2M9DlLA2ceVLeB-154">
          <mxGeometry relative="1" as="geometry">
            <mxPoint x="-790" y="240" as="sourcePoint" />
            <mxPoint x="-630" y="240" as="targetPoint" />
          </mxGeometry>
        </mxCell>
        <mxCell id="tkY_Gy2M9DlLA2ceVLeB-161" value="" style="endArrow=none;html=1;rounded=0;fontSize=12;startSize=8;endSize=8;curved=1;entryX=0;entryY=0.5;entryDx=0;entryDy=0;exitX=1;exitY=0.5;exitDx=0;exitDy=0;" edge="1" parent="1" source="tkY_Gy2M9DlLA2ceVLeB-157" target="tkY_Gy2M9DlLA2ceVLeB-154">
          <mxGeometry relative="1" as="geometry">
            <mxPoint x="-830" y="280" as="sourcePoint" />
            <mxPoint x="-710" y="330" as="targetPoint" />
          </mxGeometry>
        </mxCell>
        <mxCell id="tkY_Gy2M9DlLA2ceVLeB-162" value="" style="endArrow=none;html=1;rounded=0;fontSize=12;startSize=8;endSize=8;curved=1;exitX=1;exitY=0;exitDx=0;exitDy=0;entryX=0.25;entryY=1;entryDx=0;entryDy=0;" edge="1" parent="1" source="tkY_Gy2M9DlLA2ceVLeB-158" target="tkY_Gy2M9DlLA2ceVLeB-154">
          <mxGeometry relative="1" as="geometry">
            <mxPoint x="-800" y="339.28999999999996" as="sourcePoint" />
            <mxPoint x="-640" y="339.28999999999996" as="targetPoint" />
          </mxGeometry>
        </mxCell>
        <mxCell id="tkY_Gy2M9DlLA2ceVLeB-163" value="receives" style="shape=rhombus;perimeter=rhombusPerimeter;whiteSpace=wrap;html=1;align=center;" vertex="1" parent="1">
          <mxGeometry x="-220" y="305" width="120" height="60" as="geometry" />
        </mxCell>
        <mxCell id="tkY_Gy2M9DlLA2ceVLeB-164" value="" style="edgeStyle=entityRelationEdgeStyle;fontSize=12;html=1;endArrow=ERoneToMany;rounded=0;startSize=8;endSize=8;curved=1;entryX=1;entryY=0.5;entryDx=0;entryDy=0;exitX=0;exitY=0.5;exitDx=0;exitDy=0;" edge="1" parent="1" source="tkY_Gy2M9DlLA2ceVLeB-163" target="tkY_Gy2M9DlLA2ceVLeB-154">
          <mxGeometry width="100" height="100" relative="1" as="geometry">
            <mxPoint x="-450" y="390" as="sourcePoint" />
            <mxPoint x="-350" y="290" as="targetPoint" />
          </mxGeometry>
        </mxCell>
        <mxCell id="tkY_Gy2M9DlLA2ceVLeB-165" value="" style="edgeStyle=entityRelationEdgeStyle;fontSize=12;html=1;endArrow=ERoneToMany;rounded=0;startSize=8;endSize=8;curved=1;entryX=-0.007;entryY=0.647;entryDx=0;entryDy=0;entryPerimeter=0;" edge="1" parent="1" source="tkY_Gy2M9DlLA2ceVLeB-163" target="D1ktm93ZQyzYeGJnjbzK-1">
          <mxGeometry width="100" height="100" relative="1" as="geometry">
            <mxPoint x="-110" y="650" as="sourcePoint" />
            <mxPoint x="-10" y="550" as="targetPoint" />
          </mxGeometry>
        </mxCell>
        <mxCell id="tkY_Gy2M9DlLA2ceVLeB-168" value="Survey" style="whiteSpace=wrap;html=1;align=center;" vertex="1" parent="1">
          <mxGeometry x="-780" y="480" width="100" height="40" as="geometry" />
        </mxCell>
        <mxCell id="tkY_Gy2M9DlLA2ceVLeB-169" value="Learning_goal" style="whiteSpace=wrap;html=1;align=center;" vertex="1" parent="1">
          <mxGeometry x="-750" y="710" width="100" height="40" as="geometry" />
        </mxCell>
        <mxCell id="tkY_Gy2M9DlLA2ceVLeB-170" value="ID" style="ellipse;whiteSpace=wrap;html=1;align=center;fontStyle=4;" vertex="1" parent="1">
          <mxGeometry x="-810" y="390" width="100" height="40" as="geometry" />
        </mxCell>
        <mxCell id="tkY_Gy2M9DlLA2ceVLeB-171" value="Title" style="ellipse;whiteSpace=wrap;html=1;align=center;" vertex="1" parent="1">
          <mxGeometry x="-920" y="440" width="100" height="40" as="geometry" />
        </mxCell>
        <mxCell id="tkY_Gy2M9DlLA2ceVLeB-173" value="" style="endArrow=none;html=1;rounded=0;fontSize=12;startSize=8;endSize=8;curved=1;exitX=1;exitY=0.5;exitDx=0;exitDy=0;entryX=0;entryY=0.25;entryDx=0;entryDy=0;" edge="1" parent="1" source="tkY_Gy2M9DlLA2ceVLeB-171" target="tkY_Gy2M9DlLA2ceVLeB-168">
          <mxGeometry relative="1" as="geometry">
            <mxPoint x="-780" y="459.57" as="sourcePoint" />
            <mxPoint x="-620" y="459.57" as="targetPoint" />
          </mxGeometry>
        </mxCell>
        <mxCell id="tkY_Gy2M9DlLA2ceVLeB-174" value="" style="endArrow=none;html=1;rounded=0;fontSize=12;startSize=8;endSize=8;curved=1;exitX=1;exitY=0.5;exitDx=0;exitDy=0;entryX=0;entryY=0.75;entryDx=0;entryDy=0;" edge="1" parent="1" source="tkY_Gy2M9DlLA2ceVLeB-191" target="tkY_Gy2M9DlLA2ceVLeB-168">
          <mxGeometry relative="1" as="geometry">
            <mxPoint x="-874.7993866870884" y="535.7962437509304" as="sourcePoint" />
            <mxPoint x="-800" y="540" as="targetPoint" />
          </mxGeometry>
        </mxCell>
        <mxCell id="tkY_Gy2M9DlLA2ceVLeB-175" value="" style="endArrow=none;html=1;rounded=0;fontSize=12;startSize=8;endSize=8;curved=1;exitX=0.5;exitY=1;exitDx=0;exitDy=0;entryX=0.25;entryY=0;entryDx=0;entryDy=0;" edge="1" parent="1" source="tkY_Gy2M9DlLA2ceVLeB-170" target="tkY_Gy2M9DlLA2ceVLeB-168">
          <mxGeometry relative="1" as="geometry">
            <mxPoint x="-680" y="450" as="sourcePoint" />
            <mxPoint x="-520" y="450" as="targetPoint" />
          </mxGeometry>
        </mxCell>
        <mxCell id="tkY_Gy2M9DlLA2ceVLeB-176" value="fills" style="shape=rhombus;perimeter=rhombusPerimeter;whiteSpace=wrap;html=1;align=center;" vertex="1" parent="1">
          <mxGeometry x="-250" y="390" width="120" height="60" as="geometry" />
        </mxCell>
        <mxCell id="tkY_Gy2M9DlLA2ceVLeB-177" value="" style="edgeStyle=entityRelationEdgeStyle;fontSize=12;html=1;endArrow=ERoneToMany;rounded=0;startSize=8;endSize=8;curved=1;exitX=1;exitY=0.5;exitDx=0;exitDy=0;" edge="1" parent="1" source="tkY_Gy2M9DlLA2ceVLeB-176">
          <mxGeometry width="100" height="100" relative="1" as="geometry">
            <mxPoint x="-200" y="500" as="sourcePoint" />
            <mxPoint x="367" y="420" as="targetPoint" />
          </mxGeometry>
        </mxCell>
        <mxCell id="tkY_Gy2M9DlLA2ceVLeB-178" value="" style="edgeStyle=entityRelationEdgeStyle;fontSize=12;html=1;endArrow=ERoneToMany;rounded=0;startSize=8;endSize=8;curved=1;entryX=1;entryY=0.5;entryDx=0;entryDy=0;exitX=0;exitY=0.5;exitDx=0;exitDy=0;" edge="1" parent="1" source="tkY_Gy2M9DlLA2ceVLeB-176" target="tkY_Gy2M9DlLA2ceVLeB-168">
          <mxGeometry width="100" height="100" relative="1" as="geometry">
            <mxPoint x="-200" y="500" as="sourcePoint" />
            <mxPoint x="-100" y="400" as="targetPoint" />
          </mxGeometry>
        </mxCell>
        <mxCell id="tkY_Gy2M9DlLA2ceVLeB-179" value="ID" style="ellipse;whiteSpace=wrap;html=1;align=center;fontStyle=4;" vertex="1" parent="1">
          <mxGeometry x="-775" y="620" width="100" height="40" as="geometry" />
        </mxCell>
        <mxCell id="tkY_Gy2M9DlLA2ceVLeB-180" value="status" style="ellipse;whiteSpace=wrap;html=1;align=center;" vertex="1" parent="1">
          <mxGeometry x="-875" y="650" width="100" height="40" as="geometry" />
        </mxCell>
        <mxCell id="tkY_Gy2M9DlLA2ceVLeB-181" value="deadline" style="ellipse;whiteSpace=wrap;html=1;align=center;" vertex="1" parent="1">
          <mxGeometry x="-900" y="710" width="100" height="40" as="geometry" />
        </mxCell>
        <mxCell id="tkY_Gy2M9DlLA2ceVLeB-182" value="description" style="ellipse;whiteSpace=wrap;html=1;align=center;" vertex="1" parent="1">
          <mxGeometry x="-850" y="780" width="100" height="40" as="geometry" />
        </mxCell>
        <mxCell id="tkY_Gy2M9DlLA2ceVLeB-183" value="" style="endArrow=none;html=1;rounded=0;fontSize=12;startSize=8;endSize=8;curved=1;exitX=0.5;exitY=1;exitDx=0;exitDy=0;entryX=0.5;entryY=0;entryDx=0;entryDy=0;" edge="1" parent="1" source="tkY_Gy2M9DlLA2ceVLeB-179" target="tkY_Gy2M9DlLA2ceVLeB-169">
          <mxGeometry relative="1" as="geometry">
            <mxPoint x="-670" y="679.13" as="sourcePoint" />
            <mxPoint x="-510" y="679.13" as="targetPoint" />
          </mxGeometry>
        </mxCell>
        <mxCell id="tkY_Gy2M9DlLA2ceVLeB-184" value="" style="endArrow=none;html=1;rounded=0;fontSize=12;startSize=8;endSize=8;curved=1;exitX=1;exitY=1;exitDx=0;exitDy=0;entryX=0.25;entryY=0;entryDx=0;entryDy=0;" edge="1" parent="1" source="tkY_Gy2M9DlLA2ceVLeB-180" target="tkY_Gy2M9DlLA2ceVLeB-169">
          <mxGeometry relative="1" as="geometry">
            <mxPoint x="-780" y="690" as="sourcePoint" />
            <mxPoint x="-620" y="690" as="targetPoint" />
          </mxGeometry>
        </mxCell>
        <mxCell id="tkY_Gy2M9DlLA2ceVLeB-185" value="" style="endArrow=none;html=1;rounded=0;fontSize=12;startSize=8;endSize=8;curved=1;exitX=1;exitY=0.5;exitDx=0;exitDy=0;entryX=0;entryY=0.5;entryDx=0;entryDy=0;" edge="1" parent="1" source="tkY_Gy2M9DlLA2ceVLeB-181" target="tkY_Gy2M9DlLA2ceVLeB-169">
          <mxGeometry relative="1" as="geometry">
            <mxPoint x="-670" y="810" as="sourcePoint" />
            <mxPoint x="-510" y="810" as="targetPoint" />
          </mxGeometry>
        </mxCell>
        <mxCell id="tkY_Gy2M9DlLA2ceVLeB-186" value="" style="endArrow=none;html=1;rounded=0;fontSize=12;startSize=8;endSize=8;curved=1;exitX=0.5;exitY=0;exitDx=0;exitDy=0;entryX=0;entryY=0.75;entryDx=0;entryDy=0;" edge="1" parent="1" source="tkY_Gy2M9DlLA2ceVLeB-182" target="tkY_Gy2M9DlLA2ceVLeB-169">
          <mxGeometry relative="1" as="geometry">
            <mxPoint x="-635" y="799.13" as="sourcePoint" />
            <mxPoint x="-475" y="799.13" as="targetPoint" />
          </mxGeometry>
        </mxCell>
        <mxCell id="tkY_Gy2M9DlLA2ceVLeB-187" value="sets" style="shape=rhombus;perimeter=rhombusPerimeter;whiteSpace=wrap;html=1;align=center;" vertex="1" parent="1">
          <mxGeometry x="-465" y="560" width="120" height="60" as="geometry" />
        </mxCell>
        <mxCell id="tkY_Gy2M9DlLA2ceVLeB-188" value="" style="edgeStyle=entityRelationEdgeStyle;fontSize=12;html=1;endArrow=ERoneToMany;rounded=0;startSize=8;endSize=8;curved=1;entryX=1;entryY=0.5;entryDx=0;entryDy=0;exitX=0;exitY=0.5;exitDx=0;exitDy=0;" edge="1" parent="1" source="tkY_Gy2M9DlLA2ceVLeB-187" target="tkY_Gy2M9DlLA2ceVLeB-169">
          <mxGeometry width="100" height="100" relative="1" as="geometry">
            <mxPoint x="-590" y="700" as="sourcePoint" />
            <mxPoint x="-490" y="600" as="targetPoint" />
          </mxGeometry>
        </mxCell>
        <mxCell id="tkY_Gy2M9DlLA2ceVLeB-189" value="" style="edgeStyle=entityRelationEdgeStyle;fontSize=12;html=1;endArrow=ERoneToMany;rounded=0;startSize=8;endSize=8;curved=1;exitX=1;exitY=0.5;exitDx=0;exitDy=0;" edge="1" parent="1" source="tkY_Gy2M9DlLA2ceVLeB-187">
          <mxGeometry width="100" height="100" relative="1" as="geometry">
            <mxPoint x="-590" y="700" as="sourcePoint" />
            <mxPoint x="370" y="430" as="targetPoint" />
          </mxGeometry>
        </mxCell>
        <mxCell id="tkY_Gy2M9DlLA2ceVLeB-191" value="questions" style="ellipse;shape=doubleEllipse;margin=3;whiteSpace=wrap;html=1;align=center;" vertex="1" parent="1">
          <mxGeometry x="-940" y="530" width="100" height="40" as="geometry" />
        </mxCell>
        <mxCell id="tkY_Gy2M9DlLA2ceVLeB-192" value="answers" style="ellipse;shape=doubleEllipse;margin=3;whiteSpace=wrap;html=1;align=center;" vertex="1" parent="1">
          <mxGeometry x="-240" y="500" width="100" height="40" as="geometry" />
        </mxCell>
        <mxCell id="tkY_Gy2M9DlLA2ceVLeB-193" value="" style="endArrow=none;html=1;rounded=0;fontSize=12;startSize=8;endSize=8;curved=1;exitX=0.5;exitY=0;exitDx=0;exitDy=0;entryX=0.5;entryY=1;entryDx=0;entryDy=0;" edge="1" parent="1" source="tkY_Gy2M9DlLA2ceVLeB-192" target="tkY_Gy2M9DlLA2ceVLeB-176">
          <mxGeometry relative="1" as="geometry">
            <mxPoint x="-220" y="470" as="sourcePoint" />
            <mxPoint x="-60" y="470" as="targetPoint" />
          </mxGeometry>
        </mxCell>
        <mxCell id="tkY_Gy2M9DlLA2ceVLeB-194" value="Discussion_forum" style="whiteSpace=wrap;html=1;align=center;" vertex="1" parent="1">
          <mxGeometry x="600" y="750" width="100" height="40" as="geometry" />
        </mxCell>
        <mxCell id="tkY_Gy2M9DlLA2ceVLeB-195" value="Title" style="ellipse;whiteSpace=wrap;html=1;align=center;" vertex="1" parent="1">
          <mxGeometry x="460" y="760" width="100" height="40" as="geometry" />
        </mxCell>
        <mxCell id="tkY_Gy2M9DlLA2ceVLeB-196" value="forumID" style="ellipse;whiteSpace=wrap;html=1;align=center;fontStyle=4;" vertex="1" parent="1">
          <mxGeometry x="490" y="690" width="100" height="40" as="geometry" />
        </mxCell>
        <mxCell id="tkY_Gy2M9DlLA2ceVLeB-197" value="last_active" style="ellipse;whiteSpace=wrap;html=1;align=center;" vertex="1" parent="1">
          <mxGeometry x="502.5" y="820" width="100" height="40" as="geometry" />
        </mxCell>
        <mxCell id="tkY_Gy2M9DlLA2ceVLeB-198" value="timestamp" style="ellipse;whiteSpace=wrap;html=1;align=center;" vertex="1" parent="1">
          <mxGeometry x="587.5" y="650" width="100" height="40" as="geometry" />
        </mxCell>
        <mxCell id="tkY_Gy2M9DlLA2ceVLeB-199" value="Description" style="ellipse;whiteSpace=wrap;html=1;align=center;" vertex="1" parent="1">
          <mxGeometry x="615.5" y="850" width="100" height="40" as="geometry" />
        </mxCell>
        <mxCell id="tkY_Gy2M9DlLA2ceVLeB-200" value="" style="endArrow=none;html=1;rounded=0;fontSize=12;startSize=8;endSize=8;curved=1;exitX=0.5;exitY=1;exitDx=0;exitDy=0;entryX=0.5;entryY=0;entryDx=0;entryDy=0;" edge="1" parent="1" source="tkY_Gy2M9DlLA2ceVLeB-198" target="tkY_Gy2M9DlLA2ceVLeB-194">
          <mxGeometry relative="1" as="geometry">
            <mxPoint x="699.25" y="719.5699999999999" as="sourcePoint" />
            <mxPoint x="859.25" y="719.5699999999999" as="targetPoint" />
          </mxGeometry>
        </mxCell>
        <mxCell id="tkY_Gy2M9DlLA2ceVLeB-201" value="" style="endArrow=none;html=1;rounded=0;fontSize=12;startSize=8;endSize=8;curved=1;exitX=1;exitY=1;exitDx=0;exitDy=0;entryX=0.25;entryY=0;entryDx=0;entryDy=0;" edge="1" parent="1" source="tkY_Gy2M9DlLA2ceVLeB-196" target="tkY_Gy2M9DlLA2ceVLeB-194">
          <mxGeometry relative="1" as="geometry">
            <mxPoint x="599.25" y="730" as="sourcePoint" />
            <mxPoint x="759.25" y="730" as="targetPoint" />
          </mxGeometry>
        </mxCell>
        <mxCell id="tkY_Gy2M9DlLA2ceVLeB-202" value="" style="endArrow=none;html=1;rounded=0;fontSize=12;startSize=8;endSize=8;curved=1;exitX=1;exitY=0.5;exitDx=0;exitDy=0;entryX=0;entryY=0.5;entryDx=0;entryDy=0;" edge="1" parent="1" source="tkY_Gy2M9DlLA2ceVLeB-195" target="tkY_Gy2M9DlLA2ceVLeB-194">
          <mxGeometry relative="1" as="geometry">
            <mxPoint x="559.25" y="810" as="sourcePoint" />
            <mxPoint x="719.25" y="810" as="targetPoint" />
          </mxGeometry>
        </mxCell>
        <mxCell id="tkY_Gy2M9DlLA2ceVLeB-203" value="" style="endArrow=none;html=1;rounded=0;fontSize=12;startSize=8;endSize=8;curved=1;exitX=1;exitY=0;exitDx=0;exitDy=0;entryX=0.25;entryY=1;entryDx=0;entryDy=0;" edge="1" parent="1" source="tkY_Gy2M9DlLA2ceVLeB-197" target="tkY_Gy2M9DlLA2ceVLeB-194">
          <mxGeometry relative="1" as="geometry">
            <mxPoint x="640" y="809.13" as="sourcePoint" />
            <mxPoint x="800" y="809.13" as="targetPoint" />
          </mxGeometry>
        </mxCell>
        <mxCell id="tkY_Gy2M9DlLA2ceVLeB-204" value="" style="endArrow=none;html=1;rounded=0;fontSize=12;startSize=8;endSize=8;curved=1;exitX=0.5;exitY=0;exitDx=0;exitDy=0;entryX=0.5;entryY=1;entryDx=0;entryDy=0;" edge="1" parent="1" source="tkY_Gy2M9DlLA2ceVLeB-199" target="tkY_Gy2M9DlLA2ceVLeB-194">
          <mxGeometry relative="1" as="geometry">
            <mxPoint x="686.25" y="819.13" as="sourcePoint" />
            <mxPoint x="846.25" y="819.13" as="targetPoint" />
          </mxGeometry>
        </mxCell>
        <mxCell id="tkY_Gy2M9DlLA2ceVLeB-205" value="joins" style="shape=rhombus;perimeter=rhombusPerimeter;whiteSpace=wrap;html=1;align=center;" vertex="1" parent="1">
          <mxGeometry x="740" y="590" width="120" height="60" as="geometry" />
        </mxCell>
        <mxCell id="tkY_Gy2M9DlLA2ceVLeB-206" value="has" style="shape=rhombus;perimeter=rhombusPerimeter;whiteSpace=wrap;html=1;align=center;" vertex="1" parent="1">
          <mxGeometry x="835" y="810" width="120" height="60" as="geometry" />
        </mxCell>
        <mxCell id="tkY_Gy2M9DlLA2ceVLeB-207" value="" style="edgeStyle=entityRelationEdgeStyle;fontSize=12;html=1;endArrow=ERoneToMany;rounded=0;startSize=8;endSize=8;curved=1;entryX=0.997;entryY=0.877;entryDx=0;entryDy=0;entryPerimeter=0;exitX=0.5;exitY=0;exitDx=0;exitDy=0;" edge="1" parent="1" source="tkY_Gy2M9DlLA2ceVLeB-205" target="D1ktm93ZQyzYeGJnjbzK-1">
          <mxGeometry width="100" height="100" relative="1" as="geometry">
            <mxPoint x="580" y="610" as="sourcePoint" />
            <mxPoint x="680" y="510" as="targetPoint" />
          </mxGeometry>
        </mxCell>
        <mxCell id="tkY_Gy2M9DlLA2ceVLeB-208" value="" style="edgeStyle=entityRelationEdgeStyle;fontSize=12;html=1;endArrow=ERoneToMany;rounded=0;startSize=8;endSize=8;curved=1;entryX=1;entryY=0.25;entryDx=0;entryDy=0;exitX=0.5;exitY=1;exitDx=0;exitDy=0;" edge="1" parent="1" source="tkY_Gy2M9DlLA2ceVLeB-205" target="tkY_Gy2M9DlLA2ceVLeB-194">
          <mxGeometry width="100" height="100" relative="1" as="geometry">
            <mxPoint x="580" y="610" as="sourcePoint" />
            <mxPoint x="680" y="510" as="targetPoint" />
          </mxGeometry>
        </mxCell>
        <mxCell id="tkY_Gy2M9DlLA2ceVLeB-209" value="" style="edgeStyle=entityRelationEdgeStyle;fontSize=12;html=1;endArrow=ERoneToMany;rounded=0;startSize=8;endSize=8;curved=1;entryX=1;entryY=0.75;entryDx=0;entryDy=0;exitX=0.5;exitY=0;exitDx=0;exitDy=0;" edge="1" parent="1" source="tkY_Gy2M9DlLA2ceVLeB-206" target="tkY_Gy2M9DlLA2ceVLeB-194">
          <mxGeometry width="100" height="100" relative="1" as="geometry">
            <mxPoint x="590" y="990" as="sourcePoint" />
            <mxPoint x="690" y="890" as="targetPoint" />
          </mxGeometry>
        </mxCell>
        <mxCell id="tkY_Gy2M9DlLA2ceVLeB-210" value="" style="edgeStyle=entityRelationEdgeStyle;fontSize=12;html=1;endArrow=ERone;endFill=1;rounded=0;startSize=8;endSize=8;curved=1;entryX=1;entryY=0.25;entryDx=0;entryDy=0;" edge="1" parent="1" source="tkY_Gy2M9DlLA2ceVLeB-206" target="D1ktm93ZQyzYeGJnjbzK-63">
          <mxGeometry width="100" height="100" relative="1" as="geometry">
            <mxPoint x="590" y="990" as="sourcePoint" />
            <mxPoint x="690" y="890" as="targetPoint" />
          </mxGeometry>
        </mxCell>
        <mxCell id="tkY_Gy2M9DlLA2ceVLeB-211" value="" style="edgeStyle=entityRelationEdgeStyle;fontSize=12;html=1;endArrow=ERoneToMany;rounded=0;startSize=8;endSize=8;curved=1;entryX=0;entryY=0.5;entryDx=0;entryDy=0;exitX=1;exitY=0.5;exitDx=0;exitDy=0;" edge="1" parent="1" source="tkY_Gy2M9DlLA2ceVLeB-152" target="D1ktm93ZQyzYeGJnjbzK-80">
          <mxGeometry width="100" height="100" relative="1" as="geometry">
            <mxPoint x="1000" y="1020" as="sourcePoint" />
            <mxPoint x="1100" y="920" as="targetPoint" />
          </mxGeometry>
        </mxCell>
        <mxCell id="tkY_Gy2M9DlLA2ceVLeB-212" value="health_conditions" style="ellipse;shape=doubleEllipse;margin=3;whiteSpace=wrap;html=1;align=center;" vertex="1" parent="1">
          <mxGeometry x="1061.25" y="267.5" width="112.5" height="45" as="geometry" />
        </mxCell>
        <mxCell id="tkY_Gy2M9DlLA2ceVLeB-215" value="Modules" style="shape=ext;margin=3;double=1;whiteSpace=wrap;html=1;align=center;" vertex="1" parent="1">
          <mxGeometry x="740" y="1100" width="100" height="40" as="geometry" />
        </mxCell>
        <mxCell id="tkY_Gy2M9DlLA2ceVLeB-216" value="ActivityID" style="ellipse;whiteSpace=wrap;html=1;align=center;fontStyle=4;" vertex="1" parent="1">
          <mxGeometry x="1060" y="850" width="100" height="40" as="geometry" />
        </mxCell>
        <mxCell id="tkY_Gy2M9DlLA2ceVLeB-217" value="FeedbackID" style="ellipse;whiteSpace=wrap;html=1;align=center;fontStyle=4;" vertex="1" parent="1">
          <mxGeometry x="1592.5" y="325" width="100" height="40" as="geometry" />
        </mxCell>
        <mxCell id="tkY_Gy2M9DlLA2ceVLeB-218" value="" style="edgeStyle=entityRelationEdgeStyle;fontSize=12;html=1;endArrow=ERone;endFill=1;rounded=0;startSize=8;endSize=8;curved=1;entryX=0;entryY=0.5;entryDx=0;entryDy=0;exitX=1;exitY=0.5;exitDx=0;exitDy=0;" edge="1" parent="1" source="baV95Mj52eZd4zIyesq8-12" target="D1ktm93ZQyzYeGJnjbzK-45">
          <mxGeometry width="100" height="100" relative="1" as="geometry">
            <mxPoint x="-120" y="1130" as="sourcePoint" />
            <mxPoint x="-40" y="910" as="targetPoint" />
          </mxGeometry>
        </mxCell>
        <mxCell id="baV95Mj52eZd4zIyesq8-1" value="" style="endArrow=none;html=1;rounded=0;exitX=1;exitY=0.5;exitDx=0;exitDy=0;" edge="1" parent="1" source="tkY_Gy2M9DlLA2ceVLeB-100" target="baV95Mj52eZd4zIyesq8-2">
          <mxGeometry relative="1" as="geometry">
            <mxPoint x="1895" y="1208.82" as="sourcePoint" />
            <mxPoint x="2055" y="1208.82" as="targetPoint" />
          </mxGeometry>
        </mxCell>
        <mxCell id="baV95Mj52eZd4zIyesq8-2" value="feedback" style="ellipse;whiteSpace=wrap;html=1;align=center;" vertex="1" parent="1">
          <mxGeometry x="1970" y="1209.9999999999998" width="100" height="40" as="geometry" />
        </mxCell>
        <mxCell id="baV95Mj52eZd4zIyesq8-3" value="" style="endArrow=none;html=1;rounded=0;exitX=1;exitY=0.5;exitDx=0;exitDy=0;" edge="1" parent="1" target="baV95Mj52eZd4zIyesq8-4">
          <mxGeometry relative="1" as="geometry">
            <mxPoint x="1610" y="1110" as="sourcePoint" />
            <mxPoint x="1770" y="1078.82" as="targetPoint" />
          </mxGeometry>
        </mxCell>
        <mxCell id="baV95Mj52eZd4zIyesq8-4" value="feedback" style="ellipse;whiteSpace=wrap;html=1;align=center;" vertex="1" parent="1">
          <mxGeometry x="1685" y="1079.9999999999998" width="100" height="40" as="geometry" />
        </mxCell>
        <mxCell id="baV95Mj52eZd4zIyesq8-9" value="" style="edgeStyle=entityRelationEdgeStyle;fontSize=12;html=1;endArrow=ERone;endFill=1;rounded=0;startSize=8;endSize=8;curved=1;exitX=0.5;exitY=0;exitDx=0;exitDy=0;" edge="1" parent="1">
          <mxGeometry width="100" height="100" relative="1" as="geometry">
            <mxPoint x="-340" y="650" as="sourcePoint" />
            <mxPoint x="390" y="430" as="targetPoint" />
          </mxGeometry>
        </mxCell>
        <mxCell id="baV95Mj52eZd4zIyesq8-10" value="" style="edgeStyle=entityRelationEdgeStyle;fontSize=12;html=1;endArrow=ERoneToMany;rounded=0;startSize=8;endSize=8;curved=1;entryX=1;entryY=0.25;entryDx=0;entryDy=0;exitX=0.5;exitY=1;exitDx=0;exitDy=0;" edge="1" parent="1" target="D1ktm93ZQyzYeGJnjbzK-97">
          <mxGeometry width="100" height="100" relative="1" as="geometry">
            <mxPoint x="-340" y="710" as="sourcePoint" />
            <mxPoint x="-540" y="980" as="targetPoint" />
          </mxGeometry>
        </mxCell>
        <mxCell id="baV95Mj52eZd4zIyesq8-11" value="enrolls" style="shape=rhombus;perimeter=rhombusPerimeter;whiteSpace=wrap;html=1;align=center;" vertex="1" parent="1">
          <mxGeometry x="-400" y="650" width="120" height="60" as="geometry" />
        </mxCell>
        <mxCell id="baV95Mj52eZd4zIyesq8-12" value="enrolls in" style="shape=rhombus;perimeter=rhombusPerimeter;whiteSpace=wrap;html=1;align=center;" vertex="1" parent="1">
          <mxGeometry x="-220" y="1100" width="120" height="60" as="geometry" />
        </mxCell>
        <mxCell id="baV95Mj52eZd4zIyesq8-13" value="Course_enrollment" style="whiteSpace=wrap;html=1;align=center;" vertex="1" parent="1">
          <mxGeometry x="-552.5" y="947.5" width="137.5" height="55" as="geometry" />
        </mxCell>
        <mxCell id="baV95Mj52eZd4zIyesq8-14" value="" style="edgeStyle=entityRelationEdgeStyle;fontSize=12;html=1;endArrow=ERone;endFill=1;rounded=0;exitX=0.5;exitY=0;exitDx=0;exitDy=0;entryX=1.005;entryY=0.888;entryDx=0;entryDy=0;entryPerimeter=0;" edge="1" parent="1" source="tkY_Gy2M9DlLA2ceVLeB-142" target="tkY_Gy2M9DlLA2ceVLeB-215">
          <mxGeometry width="100" height="100" relative="1" as="geometry">
            <mxPoint x="890" y="1410" as="sourcePoint" />
            <mxPoint x="850" y="1130" as="targetPoint" />
          </mxGeometry>
        </mxCell>
        <mxCell id="baV95Mj52eZd4zIyesq8-17" value="" style="edgeStyle=entityRelationEdgeStyle;fontSize=12;html=1;endArrow=ERoneToMany;rounded=0;startSize=8;endSize=8;curved=1;exitX=1;exitY=0.5;exitDx=0;exitDy=0;" edge="1" parent="1" source="tkY_Gy2M9DlLA2ceVLeB-2">
          <mxGeometry width="100" height="100" relative="1" as="geometry">
            <mxPoint x="220" y="630" as="sourcePoint" />
            <mxPoint x="410" y="430" as="targetPoint" />
          </mxGeometry>
        </mxCell>
        <mxCell id="baV95Mj52eZd4zIyesq8-19" value="" style="edgeStyle=entityRelationEdgeStyle;fontSize=12;html=1;endArrow=ERone;endFill=1;rounded=0;entryX=1;entryY=0.5;entryDx=0;entryDy=0;exitX=0;exitY=0.5;exitDx=0;exitDy=0;" edge="1" parent="1" source="D1ktm93ZQyzYeGJnjbzK-133" target="D1ktm93ZQyzYeGJnjbzK-122">
          <mxGeometry width="100" height="100" relative="1" as="geometry">
            <mxPoint x="-220" y="280" as="sourcePoint" />
            <mxPoint x="-120" y="180" as="targetPoint" />
          </mxGeometry>
        </mxCell>
        <mxCell id="baV95Mj52eZd4zIyesq8-20" value="post" style="ellipse;whiteSpace=wrap;html=1;align=center;" vertex="1" parent="1">
          <mxGeometry x="815" y="680" width="100" height="40" as="geometry" />
        </mxCell>
        <mxCell id="baV95Mj52eZd4zIyesq8-21" value="time" style="ellipse;whiteSpace=wrap;html=1;align=center;" vertex="1" parent="1">
          <mxGeometry x="629.25" y="570" width="100" height="40" as="geometry" />
        </mxCell>
        <mxCell id="baV95Mj52eZd4zIyesq8-22" value="" style="endArrow=none;html=1;rounded=0;exitX=1;exitY=1;exitDx=0;exitDy=0;entryX=0;entryY=0.5;entryDx=0;entryDy=0;" edge="1" parent="1" source="baV95Mj52eZd4zIyesq8-21" target="tkY_Gy2M9DlLA2ceVLeB-205">
          <mxGeometry relative="1" as="geometry">
            <mxPoint x="760" y="770" as="sourcePoint" />
            <mxPoint x="920" y="770" as="targetPoint" />
          </mxGeometry>
        </mxCell>
        <mxCell id="baV95Mj52eZd4zIyesq8-23" value="" style="endArrow=none;html=1;rounded=0;exitX=1;exitY=1;exitDx=0;exitDy=0;entryX=0.5;entryY=0;entryDx=0;entryDy=0;" edge="1" parent="1" source="tkY_Gy2M9DlLA2ceVLeB-205" target="baV95Mj52eZd4zIyesq8-20">
          <mxGeometry relative="1" as="geometry">
            <mxPoint x="760" y="770" as="sourcePoint" />
            <mxPoint x="920" y="770" as="targetPoint" />
          </mxGeometry>
        </mxCell>
        <mxCell id="baV95Mj52eZd4zIyesq8-24" value="Time_earned" style="ellipse;whiteSpace=wrap;html=1;align=center;" vertex="1" parent="1">
          <mxGeometry x="210" y="-270" width="100" height="40" as="geometry" />
        </mxCell>
        <mxCell id="baV95Mj52eZd4zIyesq8-25" value="" style="endArrow=none;html=1;rounded=0;exitX=0.5;exitY=1;exitDx=0;exitDy=0;entryX=0.5;entryY=0;entryDx=0;entryDy=0;" edge="1" parent="1" source="baV95Mj52eZd4zIyesq8-24" target="tkY_Gy2M9DlLA2ceVLeB-53">
          <mxGeometry relative="1" as="geometry">
            <mxPoint x="280" y="-200.67" as="sourcePoint" />
            <mxPoint x="440" y="-200.67" as="targetPoint" />
          </mxGeometry>
        </mxCell>
        <mxCell id="-hTrkXFv86LwnVOCdB4E-1" value="Joins" style="shape=rhombus;perimeter=rhombusPerimeter;whiteSpace=wrap;html=1;align=center;" vertex="1" parent="1">
          <mxGeometry x="782.5" y="115" width="120" height="60" as="geometry" />
        </mxCell>
        <mxCell id="-hTrkXFv86LwnVOCdB4E-2" value="" style="edgeStyle=entityRelationEdgeStyle;fontSize=12;html=1;endArrow=ERoneToMany;rounded=0;entryX=1;entryY=0;entryDx=0;entryDy=0;exitX=0;exitY=0.5;exitDx=0;exitDy=0;" edge="1" parent="1" source="-hTrkXFv86LwnVOCdB4E-1" target="D1ktm93ZQyzYeGJnjbzK-1">
          <mxGeometry width="100" height="100" relative="1" as="geometry">
            <mxPoint x="705" y="55" as="sourcePoint" />
            <mxPoint x="550" y="365" as="targetPoint" />
            <Array as="points">
              <mxPoint x="735" y="225" />
            </Array>
          </mxGeometry>
        </mxCell>
        <mxCell id="-hTrkXFv86LwnVOCdB4E-3" value="" style="edgeStyle=entityRelationEdgeStyle;fontSize=12;html=1;endArrow=ERoneToMany;rounded=0;entryX=1;entryY=0.5;entryDx=0;entryDy=0;exitX=0.5;exitY=0;exitDx=0;exitDy=0;" edge="1" parent="1" source="-hTrkXFv86LwnVOCdB4E-1" target="tkY_Gy2M9DlLA2ceVLeB-48">
          <mxGeometry width="100" height="100" relative="1" as="geometry">
            <mxPoint x="600" y="260" as="sourcePoint" />
            <mxPoint x="700" y="160" as="targetPoint" />
          </mxGeometry>
        </mxCell>
        <mxCell id="-hTrkXFv86LwnVOCdB4E-4" value="Takenassessment" style="shape=rhombus;perimeter=rhombusPerimeter;whiteSpace=wrap;html=1;align=center;" vertex="1" parent="1">
          <mxGeometry x="-140" y="950" width="120" height="60" as="geometry" />
        </mxCell>
        <mxCell id="-hTrkXFv86LwnVOCdB4E-5" value="" style="edgeStyle=entityRelationEdgeStyle;fontSize=12;html=1;endArrow=ERoneToMany;rounded=0;entryX=1;entryY=0.5;entryDx=0;entryDy=0;entryPerimeter=0;exitX=0;exitY=0;exitDx=0;exitDy=0;" edge="1" parent="1" source="tkY_Gy2M9DlLA2ceVLeB-114" target="-hTrkXFv86LwnVOCdB4E-4">
          <mxGeometry width="100" height="100" relative="1" as="geometry">
            <mxPoint x="340" y="1010" as="sourcePoint" />
            <mxPoint x="440" y="910" as="targetPoint" />
          </mxGeometry>
        </mxCell>
        <mxCell id="-hTrkXFv86LwnVOCdB4E-6" value="" style="edgeStyle=entityRelationEdgeStyle;fontSize=12;html=1;endArrow=ERoneToMany;rounded=0;entryX=0.377;entryY=1.057;entryDx=0;entryDy=0;entryPerimeter=0;exitX=0.5;exitY=0;exitDx=0;exitDy=0;" edge="1" parent="1" source="-hTrkXFv86LwnVOCdB4E-4" target="D1ktm93ZQyzYeGJnjbzK-1">
          <mxGeometry width="100" height="100" relative="1" as="geometry">
            <mxPoint x="340" y="770" as="sourcePoint" />
            <mxPoint x="440" y="670" as="targetPoint" />
          </mxGeometry>
        </mxCell>
        <mxCell id="-hTrkXFv86LwnVOCdB4E-7" value="Scoredpoints" style="ellipse;whiteSpace=wrap;html=1;align=center;" vertex="1" parent="1">
          <mxGeometry x="-300" y="910" width="100" height="40" as="geometry" />
        </mxCell>
        <mxCell id="-hTrkXFv86LwnVOCdB4E-8" value="" style="endArrow=none;html=1;rounded=0;exitX=1;exitY=0.5;exitDx=0;exitDy=0;entryX=0;entryY=0.5;entryDx=0;entryDy=0;" edge="1" parent="1" source="-hTrkXFv86LwnVOCdB4E-7" target="-hTrkXFv86LwnVOCdB4E-4">
          <mxGeometry relative="1" as="geometry">
            <mxPoint x="-280" y="989" as="sourcePoint" />
            <mxPoint x="-120" y="989" as="targetPoint" />
          </mxGeometry>
        </mxCell>
        <mxCell id="-hTrkXFv86LwnVOCdB4E-9" value="Prerequisites" style="ellipse;shape=doubleEllipse;margin=3;whiteSpace=wrap;html=1;align=center;" vertex="1" parent="1">
          <mxGeometry x="270" y="950" width="100" height="40" as="geometry" />
        </mxCell>
        <mxCell id="JK1haEwEE9AvR2TfbLoN-1" value="ReadStatus" style="ellipse;whiteSpace=wrap;html=1;align=center;" vertex="1" parent="1">
          <mxGeometry x="-705" y="335" width="100" height="40" as="geometry" />
        </mxCell>
        <mxCell id="JK1haEwEE9AvR2TfbLoN-2" value="" style="endArrow=none;html=1;rounded=0;exitX=0.75;exitY=1;exitDx=0;exitDy=0;entryX=0;entryY=0;entryDx=0;entryDy=0;" edge="1" parent="1" source="tkY_Gy2M9DlLA2ceVLeB-154" target="JK1haEwEE9AvR2TfbLoN-1">
          <mxGeometry relative="1" as="geometry">
            <mxPoint x="-712.5" y="325" as="sourcePoint" />
            <mxPoint x="-552.5" y="325" as="targetPoint" />
          </mxGeometry>
        </mxCell>
        <mxCell id="JK1haEwEE9AvR2TfbLoN-3" value="" style="endArrow=none;html=1;rounded=0;exitX=1;exitY=0;exitDx=0;exitDy=0;" edge="1" parent="1" source="-hTrkXFv86LwnVOCdB4E-1" target="JK1haEwEE9AvR2TfbLoN-4">
          <mxGeometry relative="1" as="geometry">
            <mxPoint x="640" y="10" as="sourcePoint" />
            <mxPoint x="800" y="10" as="targetPoint" />
          </mxGeometry>
        </mxCell>
        <mxCell id="JK1haEwEE9AvR2TfbLoN-4" value="completionstatus" style="ellipse;whiteSpace=wrap;html=1;align=center;" vertex="1" parent="1">
          <mxGeometry x="915" y="30" width="100" height="40" as="geometry" />
        </mxCell>
        <mxCell id="JK1haEwEE9AvR2TfbLoN-5" value="Joins" style="shape=rhombus;perimeter=rhombusPerimeter;whiteSpace=wrap;html=1;align=center;" vertex="1" parent="1">
          <mxGeometry x="617.5" y="40" width="120" height="60" as="geometry" />
        </mxCell>
        <mxCell id="JK1haEwEE9AvR2TfbLoN-6" value="" style="edgeStyle=entityRelationEdgeStyle;fontSize=12;html=1;endArrow=ERoneToMany;rounded=0;exitX=0;exitY=1;exitDx=0;exitDy=0;entryX=1;entryY=0.171;entryDx=0;entryDy=0;entryPerimeter=0;" edge="1" parent="1" source="JK1haEwEE9AvR2TfbLoN-5" target="D1ktm93ZQyzYeGJnjbzK-1">
          <mxGeometry width="100" height="100" relative="1" as="geometry">
            <mxPoint x="540" y="-20" as="sourcePoint" />
            <mxPoint x="380" y="280" as="targetPoint" />
            <Array as="points">
              <mxPoint x="570" y="150" />
            </Array>
          </mxGeometry>
        </mxCell>
        <mxCell id="JK1haEwEE9AvR2TfbLoN-7" value="" style="edgeStyle=entityRelationEdgeStyle;fontSize=12;html=1;endArrow=ERoneToMany;rounded=0;exitX=0.5;exitY=0;exitDx=0;exitDy=0;" edge="1" parent="1" source="JK1haEwEE9AvR2TfbLoN-5" target="tkY_Gy2M9DlLA2ceVLeB-47">
          <mxGeometry width="100" height="100" relative="1" as="geometry">
            <mxPoint x="435" y="185" as="sourcePoint" />
            <mxPoint x="375" y="-195" as="targetPoint" />
          </mxGeometry>
        </mxCell>
        <mxCell id="JK1haEwEE9AvR2TfbLoN-8" value="" style="endArrow=none;html=1;rounded=0;exitX=1;exitY=0;exitDx=0;exitDy=0;" edge="1" parent="1" source="JK1haEwEE9AvR2TfbLoN-5" target="JK1haEwEE9AvR2TfbLoN-9">
          <mxGeometry relative="1" as="geometry">
            <mxPoint x="475" y="-65" as="sourcePoint" />
            <mxPoint x="635" y="-65" as="targetPoint" />
          </mxGeometry>
        </mxCell>
        <mxCell id="JK1haEwEE9AvR2TfbLoN-9" value="completionstatus" style="ellipse;whiteSpace=wrap;html=1;align=center;" vertex="1" parent="1">
          <mxGeometry x="660" y="-40" width="100" height="40" as="geometry" />
        </mxCell>
      </root>
    </mxGraphModel>
  </diagram>
</mxfile>
